<svg xmlns="http://www.w3.org/2000/svg" width="1869" height="1894" viewBox="0 0 1869 1894"><defs><style type="text/css"/></defs><g transform="translate(1790.4295478947952 2838.742306328505) scale(1)"><g class="relationship"><g transform="translate(-791.0987449904853 -2531.2559811074557) rotate(24.202612521374093)" stroke-width="5" stroke="#000000"><path d="M 59 0 L 421.99798126448803 0"/><polygon points="-24.8621506177483,0 -27.62461179749811,9.20820393249937 0,0 -27.62461179749811,-9.20820393249937" fill="#000000" transform="translate(446.8601318822363 0) rotate(0)" stroke="none"/></g><g transform="translate(-571.7392731828626 -2432.65990297344) rotate(24.202612521374093) translate(0 -13)"><g transform="translate(0 0)"><g transform="translate(-22.34375 0)" fill="#ffffff" stroke="#000000" stroke-width="0"><rect x="0" y="0" width="44.6875" height="26" rx="5" ry="5" stroke="none"/><text xml:space="preserve" x="5" y="17.45703125" stroke="none" text-anchor="left" font-family="sans-serif" font-size="16" font-weight="normal" fill="#000000">IS_A</text></g></g></g></g><g class="relationship"><g transform="translate(-791.0987449904853 -2531.2559811074557) rotate(158.16503289304964)" stroke-width="5" stroke="#000000"><path d="M 59 0 L 466.74082432091836 0"/><polygon points="-24.8621506177483,0 -27.62461179749811,9.20820393249937 0,0 -27.62461179749811,-9.20820393249937" fill="#000000" transform="translate(491.60297493866665 0) rotate(0)" stroke="none"/></g><g transform="translate(-1035.1105739307475 -2433.4854286561276) rotate(338.16503289304967) translate(0 -13)"><g transform="translate(0 0)"><g transform="translate(-22.34375 0)" fill="#ffffff" stroke="#000000" stroke-width="0"><rect x="0" y="0" width="44.6875" height="26" rx="5" ry="5" stroke="none"/><text xml:space="preserve" x="5" y="17.45703125" stroke="none" text-anchor="left" font-family="sans-serif" font-size="16" font-weight="normal" fill="#000000">IS_A</text></g></g></g></g><g class="relationship"><g transform="translate(-329.702998395013 -2323.8712226233274) rotate(-30.363820157503596)" stroke-width="5" stroke="#000000"><path d="M 59 0 L 326.4034519778383 0"/><polygon points="-24.8621506177483,0 -27.62461179749811,9.20820393249937 0,0 -27.62461179749811,-9.20820393249937" fill="#000000" transform="translate(351.2656025955866 0) rotate(0)" stroke="none"/></g><g transform="translate(-163.43358312151997 -2421.279829756985) rotate(-30.363820157503596) translate(0 -13)"><g transform="translate(0 0)"><g transform="translate(-26.78515625 0)" fill="#ffffff" stroke="#000000" stroke-width="0"><rect x="0" y="0" width="53.5703125" height="26" rx="5" ry="5" stroke="none"/><text xml:space="preserve" x="5" y="17.45703125" stroke="none" text-anchor="left" font-family="sans-serif" font-size="16" font-weight="normal" fill="#000000">USES</text></g></g></g></g><g class="relationship"><g transform="translate(-329.702998395013 -2323.8712226233274) rotate(0)" stroke-width="5" stroke="#000000"><path d="M 59 0 L 270.12856482772713 0"/><polygon points="-24.8621506177483,0 -27.62461179749811,9.20820393249937 0,0 -27.62461179749811,-9.20820393249937" fill="#000000" transform="translate(294.9907154454755 0) rotate(0)" stroke="none"/></g><g transform="translate(-165.13871598114946 -2323.8712226233274) rotate(0) translate(0 -13)"><g transform="translate(0 0)"><g transform="translate(-26.78515625 0)" fill="#ffffff" stroke="#000000" stroke-width="0"><rect x="0" y="0" width="53.5703125" height="26" rx="5" ry="5" stroke="none"/><text xml:space="preserve" x="5" y="17.45703125" stroke="none" text-anchor="left" font-family="sans-serif" font-size="16" font-weight="normal" fill="#000000">USES</text></g></g></g></g><g class="relationship"><g transform="translate(-329.702998395013 -2323.8712226233274) rotate(90.5933195637277)" stroke-width="5" stroke="#000000"><path d="M 59 0 L 366.4893187065257 0"/><polygon points="-24.8621506177483,0 -27.62461179749811,9.20820393249937 0,0 -27.62461179749811,-9.20820393249937" fill="#000000" transform="translate(391.351469324274 0) rotate(0)" stroke="none"/></g><g transform="translate(-331.9060107916411 -2111.1379698871456) rotate(270.5933195637277) translate(0 -13)"><g transform="translate(0 0)"><g transform="translate(-29.88671875 0)" fill="#ffffff" stroke="#000000" stroke-width="0"><rect x="0" y="0" width="59.7734375" height="26" rx="5" ry="5" stroke="none"/><text xml:space="preserve" x="5" y="17.45703125" stroke="none" text-anchor="left" font-family="sans-serif" font-size="16" font-weight="normal" fill="#000000">OWNS</text></g></g></g></g><g class="relationship"><g transform="translate(-334.3664756018067 -1873.5438995539025) rotate(0)" stroke-width="5" stroke="#000000"><path d="M 59 0 L 274.7920420345208 0"/><polygon points="-24.8621506177483,0 -27.62461179749811,9.20820393249937 0,0 -27.62461179749811,-9.20820393249937" fill="#000000" transform="translate(299.65419265226916 0) rotate(0)" stroke="none"/></g><g transform="translate(-167.4704545845463 -1873.5438995539025) rotate(0) translate(0 -13)"><g transform="translate(0 0)"><g transform="translate(-41.1640625 0)" fill="#ffffff" stroke="#000000" stroke-width="0"><rect x="0" y="0" width="82.328125" height="26" rx="5" ry="5" stroke="none"/><text xml:space="preserve" x="5" y="17.45703125" stroke="none" text-anchor="left" font-family="sans-serif" font-size="16" font-weight="normal" fill="#000000">PART_OF</text></g></g></g></g><g class="relationship"><g transform="translate(-329.702998395013 -2323.8712226233274) rotate(180)" stroke-width="5" stroke="#000000"><path d="M 59 0 L 243.61279242875574 0"/><polygon points="-24.8621506177483,0 -27.62461179749811,9.20820393249937 0,0 -27.62461179749811,-9.20820393249937" fill="#000000" transform="translate(268.47494304650405 0) rotate(0)" stroke="none"/></g><g transform="translate(-481.0093946093909 -2323.8712226233274) rotate(360) translate(0 -13)"><g transform="translate(0 0)"><g transform="translate(-45.45703125 0)" fill="#ffffff" stroke="#000000" stroke-width="0"><rect x="0" y="0" width="90.9140625" height="26" rx="5" ry="5" stroke="none"/><text xml:space="preserve" x="5" y="17.45703125" stroke="none" text-anchor="left" font-family="sans-serif" font-size="16" font-weight="normal" fill="#000000">IN_SCOPE</text></g></g></g></g><g class="relationship"><g transform="translate(-791.0987449904853 -1663.2617306962138) rotate(-24.721615528937086)" stroke-width="5" stroke="#000000"><path d="M 59 0 L 418.95288141731925 0"/><polygon points="-24.8621506177483,0 -27.62461179749811,9.20820393249937 0,0 -27.62461179749811,-9.20820393249937" fill="#000000" transform="translate(443.81503203506753 0) rotate(0)" stroke="none"/></g><g transform="translate(-574.0243833638368 -1763.204017733096) rotate(-24.721615528937086) translate(0 -13)"><g transform="translate(0 0)"><g transform="translate(-65.75390625 0)" fill="#ffffff" stroke="#000000" stroke-width="0"><rect x="0" y="0" width="131.5078125" height="26" rx="5" ry="5" stroke="none"/><text xml:space="preserve" x="5" y="17.45703125" stroke="none" text-anchor="left" font-family="sans-serif" font-size="16" font-weight="normal" fill="#000000">IS_MAINTAINER</text></g></g></g></g><g class="relationship"><g transform="translate(-791.0987449904853 -1663.2617306962138) rotate(0)" stroke-width="5" stroke="#000000"><path d="M 59 0 L 372.87011877093033 0"/><polygon points="-24.8621506177483,0 -27.62461179749811,9.20820393249937 0,0 -27.62461179749811,-9.20820393249937" fill="#000000" transform="translate(397.7322693886786 0) rotate(0)" stroke="none"/></g><g transform="translate(-575.1636856050202 -1663.2617306962138) rotate(0) translate(0 -13)"><g transform="translate(0 0)"><g transform="translate(-49.890625 0)" fill="#ffffff" stroke="#000000" stroke-width="0"><rect x="0" y="0" width="99.78125" height="26" rx="5" ry="5" stroke="none"/><text xml:space="preserve" x="5" y="17.45703125" stroke="none" text-anchor="left" font-family="sans-serif" font-size="16" font-weight="normal" fill="#000000">AUTHORED</text></g></g></g></g><g class="relationship"><g transform="translate(-334.3664756018067 -1663.2617306962138) rotate(0)" stroke-width="5" stroke="#000000"><path d="M 59 0 L 274.7920420345208 0"/><polygon points="-24.8621506177483,0 -27.62461179749811,9.20820393249937 0,0 -27.62461179749811,-9.20820393249937" fill="#000000" transform="translate(299.65419265226916 0) rotate(0)" stroke="none"/></g><g transform="translate(-167.4704545845463 -1663.2617306962138) rotate(0) translate(0 -13)"><g transform="translate(0 0)"><g transform="translate(-41.1640625 0)" fill="#ffffff" stroke="#000000" stroke-width="0"><rect x="0" y="0" width="82.328125" height="26" rx="5" ry="5" stroke="none"/><text xml:space="preserve" x="5" y="17.45703125" stroke="none" text-anchor="left" font-family="sans-serif" font-size="16" font-weight="normal" fill="#000000">PART_OF</text></g></g></g></g><g class="relationship"><g transform="translate(24.287717050462458 -1663.2617306962138) rotate(-149.61652170934534)" stroke-width="5" stroke="#000000"><path d="M 59 0 L 331.8918877830164 0"/><polygon points="-24.8621506177483,0 -27.62461179749811,9.20820393249937 0,0 -27.62461179749811,-9.20820393249937" fill="#000000" transform="translate(356.75403840076467 0) rotate(0)" stroke="none"/></g><g transform="translate(-144.3155934145566 -1762.1153633248582) rotate(30.383478290654665) translate(0 -13)"><g transform="translate(0 0)"><g transform="translate(-41.1640625 0)" fill="#ffffff" stroke="#000000" stroke-width="0"><rect x="0" y="0" width="82.328125" height="26" rx="5" ry="5" stroke="none"/><text xml:space="preserve" x="5" y="17.45703125" stroke="none" text-anchor="left" font-family="sans-serif" font-size="16" font-weight="normal" fill="#000000">PART_OF</text></g></g></g></g><g class="relationship"><g transform="translate(-329.702998395013 -1359.0282889940045) rotate(-90.87819615021318)" stroke-width="5" stroke="#000000"><path d="M 59 0 L 220.40703130777948 0"/><polygon points="-24.8621506177483,0 -27.62461179749811,9.20820393249937 0,0 -27.62461179749811,-9.20820393249937" fill="#000000" transform="translate(245.2691819255278 0) rotate(0)" stroke="none"/></g><g transform="translate(-331.8442082173089 -1498.7153947216038) rotate(89.12180384978683) translate(0 -13)"><g transform="translate(0 0)"><g transform="translate(-45.74609375 0)" fill="#ffffff" stroke="#000000" stroke-width="0"><rect x="0" y="0" width="91.4921875" height="26" rx="5" ry="5" stroke="none"/><text xml:space="preserve" x="5" y="17.45703125" stroke="none" text-anchor="left" font-family="sans-serif" font-size="16" font-weight="normal" fill="#000000">CONTAINS</text></g></g></g></g><g class="relationship"><g transform="translate(-791.0987449904853 -2531.2559811074557) rotate(-90)" stroke-width="5" stroke="#000000"><path d="M 59 0 L 169.62417460330107 0"/><polygon points="-24.8621506177483,0 -27.62461179749811,9.20820393249937 0,0 -27.62461179749811,-9.20820393249937" fill="#000000" transform="translate(194.48632522104936 0) rotate(0)" stroke="none"/></g><g transform="translate(-791.0987449904853 -2645.568068409106) rotate(90) translate(0 -13)"><g transform="translate(0 0)"><g transform="translate(-32.859375 0)" fill="#ffffff" stroke="#000000" stroke-width="0"><rect x="0" y="0" width="65.71875" height="26" rx="5" ry="5" stroke="none"/><text xml:space="preserve" x="5" y="17.45703125" stroke="none" text-anchor="left" font-family="sans-serif" font-size="16" font-weight="normal" fill="#000000">IN_CAT</text></g></g></g></g><g class="relationship"><g transform="translate(-1302.2009182267884 -2326.4677868079843) rotate(-89.99999999999993)" stroke-width="5" stroke="#000000"><path d="M 59 0 L 282.0800748692127 0"/><polygon points="-24.8621506177483,0 -27.62461179749811,9.20820393249937 0,0 -27.62461179749811,-9.20820393249937" fill="#000000" transform="translate(306.942225486961 0) rotate(0)" stroke="none"/></g><g transform="translate(-1302.2009182267882 -2497.0078242425907) rotate(-89.99999999999993) translate(0 -13)"><g transform="translate(0 0)"><g transform="translate(-37.31640625 0)" fill="#ffffff" stroke="#000000" stroke-width="0"><rect x="0" y="0" width="74.6328125" height="26" rx="5" ry="5" stroke="none"/><text xml:space="preserve" x="5" y="17.45703125" stroke="none" text-anchor="left" font-family="sans-serif" font-size="16" font-weight="normal" fill="#000000">IS_MLVL</text></g></g></g></g><g class="relationship"><g transform="translate(-329.702998395013 -1359.0282889940045) rotate(-40.6770501330243)" stroke-width="5" stroke="#000000"><path d="M 59 0 L 382.9005446263888 0"/><polygon points="-24.8621506177483,0 -27.62461179749811,9.20820393249937 0,0 -27.62461179749811,-9.20820393249937" fill="#000000" transform="translate(407.7626952441371 0) rotate(0)" stroke="none"/></g><g transform="translate(-162.13531192188813 -1503.0425010889198) rotate(-40.6770501330243) translate(0 -13)"><g transform="translate(0 0)"><g transform="translate(-45.00390625 0)" fill="#ffffff" stroke="#000000" stroke-width="0"><rect x="0" y="0" width="90.0078125" height="26" rx="5" ry="5" stroke="none"/><text xml:space="preserve" x="5" y="17.45703125" stroke="none" text-anchor="left" font-family="sans-serif" font-size="16" font-weight="normal" fill="#000000">CHANGED</text></g></g></g></g><g class="relationship"><g transform="translate(-329.702998395013 -2323.8712226233274) rotate(-90)" stroke-width="5" stroke="#000000"><path d="M 59 0 L 284.6766390538696 0"/><polygon points="-24.8621506177483,0 -27.62461179749811,9.20820393249937 0,0 -27.62461179749811,-9.20820393249937" fill="#000000" transform="translate(309.5387896716179 0) rotate(0)" stroke="none"/></g><g transform="translate(-329.702998395013 -2495.709542150262) rotate(90) translate(0 -13)"><g transform="translate(0 0)"><g transform="translate(-35.98828125 0)" fill="#ffffff" stroke="#000000" stroke-width="0"><rect x="0" y="0" width="71.9765625" height="26" rx="5" ry="5" stroke="none"/><text xml:space="preserve" x="5" y="17.45703125" stroke="none" text-anchor="left" font-family="sans-serif" font-size="16" font-weight="normal" fill="#000000">IS_PLVL</text></g></g></g></g><g class="relationship"><g transform="translate(-1302.2009182267884 -2326.4677868079843) rotate(0.4065489223511818)" stroke-width="5" stroke="#000000"><path d="M 59 0 L 282.0800748692126 0"/><polygon points="-24.8621506177483,0 -27.62461179749811,9.20820393249937 0,0 -27.62461179749811,-9.20820393249937" fill="#000000" transform="translate(306.9422254869609 0) rotate(0)" stroke="none"/></g><g transform="translate(-1131.6651739306858 -2325.2577101280835) rotate(0.4065489223511818) translate(0 -13)"><g transform="translate(0 0)"><g transform="translate(-55.671875 0)" fill="#ffffff" stroke="#000000" stroke-width="0"><rect x="0" y="0" width="111.34375" height="26" rx="5" ry="5" stroke="none"/><text xml:space="preserve" x="5" y="17.45703125" stroke="none" text-anchor="left" font-family="sans-serif" font-size="16" font-weight="normal" fill="#000000">MEMBER_OF</text></g></g></g></g><g class="relationship"><g transform="translate(-791.0987449904853 -1663.2617306962138) rotate(33.399913609019045)" stroke-width="5" stroke="#000000"><path d="M 57.78386207693039 -11.917436111609138 L 92.97590692370865 -19.17549971317315 A 40 40 0 0 1 101.0555246264945 -20 L 276.33495165576005 -20 L 451.6143786850256 -20 A 40 40 0 0 1 459.6939963878114 -19.175499713173153 L 470.5363618747281 -16.939352918121326 L 470.5363618747281 -16.939352918121326"/><polygon points="-24.8621506177483,0 -27.62461179749811,9.20820393249937 0,0 -27.62461179749811,-9.20820393249937" fill="#000000" transform="translate(552.6699033115201 0) rotate(11.653378884016742) translate(-59 0)" stroke="none"/></g><g transform="translate(-549.3912820668518 -1527.8419837107333) rotate(33.399913609019045) translate(0 -13)"><g transform="translate(0 0)"><g transform="translate(-47.671875 0)" fill="#ffffff" stroke="#000000" stroke-width="0"><rect x="0" y="0" width="95.34375" height="26" rx="5" ry="5" stroke="none"/><text xml:space="preserve" x="5" y="17.45703125" stroke="none" text-anchor="left" font-family="sans-serif" font-size="16" font-weight="normal" fill="#000000">REVIEWED</text></g></g></g></g><g class="relationship"><g transform="translate(-791.0987449904853 -1663.2617306962138) rotate(33.399913609019045)" stroke-width="5" stroke="#000000"><path d="M 59 0 L 468.8077526937718 0"/><polygon points="-24.8621506177483,0 -27.62461179749811,9.20820393249937 0,0 -27.62461179749811,-9.20820393249937" fill="#000000" transform="translate(493.6699033115201 0) rotate(0)" stroke="none"/></g><g transform="translate(-570.778938670443 -1517.9880617330755) rotate(33.399913609019045) translate(0 -13)"><g transform="translate(0 0)"><g transform="translate(-49.45703125 0)" fill="#ffffff" stroke="#000000" stroke-width="0"><rect x="0" y="0" width="98.9140625" height="26" rx="5" ry="5" stroke="none"/><text xml:space="preserve" x="5" y="17.45703125" stroke="none" text-anchor="left" font-family="sans-serif" font-size="16" font-weight="normal" fill="#000000">APPROVED</text></g></g></g></g><g class="relationship"><g transform="translate(-791.0987449904853 -1663.2617306962138) rotate(33.399913609019045)" stroke-width="5" stroke="#000000"><path d="M 57.78386207693039 11.917436111609138 L 92.97590692370865 19.17549971317315 A 40 40 0 0 0 101.0555246264945 20 L 276.33495165576005 20 L 451.6143786850256 20 A 40 40 0 0 0 459.6939963878114 19.175499713173153 L 470.5363618747281 16.939352918121326 L 470.5363618747281 16.939352918121326"/><polygon points="-24.8621506177483,0 -27.62461179749811,9.20820393249937 0,0 -27.62461179749811,-9.20820393249937" fill="#000000" transform="translate(552.6699033115201 0) rotate(-11.653378884016742) translate(-59 0)" stroke="none"/></g><g transform="translate(-571.4104613186464 -1494.448035979485) rotate(33.399913609019045) translate(0 -13)"><g transform="translate(0 0)"><g transform="translate(-42.63671875 0)" fill="#ffffff" stroke="#000000" stroke-width="0"><rect x="0" y="0" width="85.2734375" height="26" rx="5" ry="5" stroke="none"/><text xml:space="preserve" x="5" y="17.45703125" stroke="none" text-anchor="left" font-family="sans-serif" font-size="16" font-weight="normal" fill="#000000">CREATED</text></g></g></g></g><g class="relationship"><g transform="translate(-1302.2009182267884 -2326.4677868079843) rotate(88.9971042309262)" stroke-width="5" stroke="#000000"><path d="M 59 0 L 369.1311298513954 0"/><polygon points="-24.8621506177483,0 -27.62461179749811,9.20820393249937 0,0 -27.62461179749811,-9.20820393249937" fill="#000000" transform="translate(393.99328046914366 0) rotate(0)" stroke="none"/></g></g><g class="relationship"><g transform="translate(-1294.2722042801217 -1873.5438995539025) rotate(89.66565960993783)" stroke-width="5" stroke="#000000"><path d="M 58.695178092152055 -5.989663490593892 L 95.96898050729241 -9.793341079425122 A 40 40 0 0 1 100.0297693144747 -10 L 118 -10 L 226 -10 A 10 10 0 0 1 236 -1.7763568394002505e-15 L 236 0 L 236 1.7763568394002505e-15 A 10 10 0 0 1 226 10 L 118 10 L 100.0297693144747 10 A 40 40 0 0 0 95.96898050729241 9.793341079425122 L 83.42887907965451 8.513662064369711 L 83.42887907965451 8.513662064369711"/><polygon points="-24.8621506177483,0 -27.62461179749811,9.20820393249937 0,0 -27.62461179749811,-9.20820393249937" fill="#000000" transform="rotate(185.8266894420084) translate(-59 0)" stroke="none"/></g><g transform="translate(-1292.9534247823378 -1647.547747328613) rotate(359.6656596099379) translate(0 -13)"><g transform="translate(0 0)"><g transform="translate(-33.45703125 0)" fill="#ffffff" stroke="#000000" stroke-width="0"><rect x="0" y="0" width="66.9140625" height="26" rx="5" ry="5" stroke="none"/><text xml:space="preserve" x="5" y="17.45703125" stroke="none" text-anchor="left" font-family="sans-serif" font-size="16" font-weight="normal" fill="#000000">IS_SUB</text></g></g></g></g><g class="relationship"><g transform="translate(-1294.2722042801217 -1873.5438995539025) rotate(-167.4427504366832)" stroke-width="5" stroke="#000000"><path d="M 59 0 L 369.1311298513954 0"/><polygon points="-24.8621506177483,0 -27.62461179749811,9.20820393249937 0,0 -27.62461179749811,-9.20820393249937" fill="#000000" transform="translate(393.99328046914366 0) rotate(0)" stroke="none"/></g><g transform="translate(-1503.217161364023 -1920.0849673990297) rotate(12.557249563316812) translate(0 -13)"><g transform="translate(0 0)"><g transform="translate(-60.42578125 0)" fill="#ffffff" stroke="#000000" stroke-width="0"><rect x="0" y="0" width="120.8515625" height="26" rx="5" ry="5" stroke="none"/><text xml:space="preserve" x="5" y="17.45703125" stroke="none" text-anchor="left" font-family="sans-serif" font-size="16" font-weight="normal" fill="#000000">OPERATES_IN</text></g></g></g></g><g class="relationship"><g transform="translate(-1506.8246079035598 -1521.393775500801) rotate(-139.67296282849227)" stroke-width="5" stroke="#000000"><path d="M 59 0 L 182.86546539598936 0"/><polygon points="-24.8621506177483,0 -27.62461179749811,9.20820393249937 0,0 -27.62461179749811,-9.20820393249937" fill="#000000" transform="translate(207.72761601373765 0) rotate(0)" stroke="none"/></g><g transform="translate(-1599.019252752835 -1599.655345245604) rotate(40.32703717150772) translate(0 -13)"><g transform="translate(0 0)"><g transform="translate(-38.33203125 0)" fill="#ffffff" stroke="#000000" stroke-width="0"><rect x="0" y="0" width="76.6640625" height="26" rx="5" ry="5" stroke="none"/><text xml:space="preserve" x="5" y="17.45703125" stroke="none" text-anchor="left" font-family="sans-serif" font-size="16" font-weight="normal" fill="#000000">FUNDED</text></g></g></g></g><g class="relationship"><g transform="translate(-1710.1678821458704 -1694.0064458491515) rotate(-23.349310491597066)" stroke-width="5" stroke="#000000"><path d="M 59 0 L 369.1311298513953 0"/><polygon points="-24.8621506177483,0 -27.62461179749811,9.20820393249937 0,0 -27.62461179749811,-9.20820393249937" fill="#000000" transform="translate(393.9932804691436 0) rotate(0)" stroke="none"/></g><g transform="translate(-1513.6330833508764 -1778.8482925379717) rotate(-23.349310491597066) translate(0 -13)"><g transform="translate(0 0)"><g transform="translate(-38.33203125 0)" fill="#ffffff" stroke="#000000" stroke-width="0"><rect x="0" y="0" width="76.6640625" height="26" rx="5" ry="5" stroke="none"/><text xml:space="preserve" x="5" y="17.45703125" stroke="none" text-anchor="left" font-family="sans-serif" font-size="16" font-weight="normal" fill="#000000">FUNDED</text></g></g></g></g><g class="relationship"><g transform="translate(-791.0987449904853 -1663.2617306962138) rotate(-157.31937028852727)" stroke-width="5" stroke="#000000"><path d="M 58.695178092152055 -5.989663490593891 L 95.96898050729243 -9.793341079425122 A 40 40 0 0 1 100.02976931447472 -10 L 272.6729362592632 -10 L 445.31610320405173 -10 A 40 40 0 0 1 449.3768920112341 -9.79334107942512 L 461.91699343887194 -8.51366206436971 L 461.91699343887194 -8.51366206436971"/><polygon points="-24.8621506177483,0 -27.62461179749811,9.20820393249937 0,0 -27.62461179749811,-9.20820393249937" fill="#000000" transform="translate(545.3458725185264 0) rotate(5.826689442008371) translate(-59 0)" stroke="none"/></g><g transform="translate(-1046.5414159645477 -1759.1761301046715) rotate(22.680629711472736) translate(0 -13)"><g transform="translate(0 0)"><g transform="translate(-64.578125 0)" fill="#ffffff" stroke="#000000" stroke-width="0"><rect x="0" y="0" width="129.15625" height="26" rx="5" ry="5" stroke="none"/><text xml:space="preserve" x="5" y="17.45703125" stroke="none" text-anchor="left" font-family="sans-serif" font-size="16" font-weight="normal" fill="#000000">EMPLOYED_BY</text></g></g></g></g><g class="relationship"><g transform="translate(-791.0987449904853 -1663.2617306962138) rotate(-157.31937028852727)" stroke-width="5" stroke="#000000"><path d="M 58.695178092152055 5.989663490593891 L 95.96898050729243 9.793341079425122 A 40 40 0 0 0 100.02976931447472 10 L 272.6729362592632 10 L 445.31610320405173 10 A 40 40 0 0 0 449.3768920112341 9.79334107942512 L 461.91699343887194 8.51366206436971 L 461.91699343887194 8.51366206436971"/><polygon points="-24.8621506177483,0 -27.62461179749811,9.20820393249937 0,0 -27.62461179749811,-9.20820393249937" fill="#000000" transform="translate(545.3458725185264 0) rotate(-5.826689442008371) translate(-59 0)" stroke="none"/></g><g transform="translate(-1038.8295333060594 -1777.6295001454448) rotate(22.680629711472736) translate(0 -13)"><g transform="translate(0 0)"><g transform="translate(-45.45703125 0)" fill="#ffffff" stroke="#000000" stroke-width="0"><rect x="0" y="0" width="90.9140625" height="26" rx="5" ry="5" stroke="none"/><text xml:space="preserve" x="5" y="17.45703125" stroke="none" text-anchor="left" font-family="sans-serif" font-size="16" font-weight="normal" fill="#000000">IS_BOARD</text></g></g></g></g><g class="relationship"><g transform="translate(-791.0987449904853 -1663.2617306962138) rotate(-70.54762404868987)" stroke-width="5" stroke="#000000"><path d="M 59 0 L 318.2743792056398 0"/><polygon points="-24.8621506177483,0 -27.62461179749811,9.20820393249937 0,0 -27.62461179749811,-9.20820393249937" fill="#000000" transform="translate(343.13652982338806 0) rotate(0)" stroke="none"/></g><g transform="translate(-728.2781799900274 -1841.1312500475447) rotate(-70.54762404868987) translate(0 -13)"><g transform="translate(0 0)"><g transform="translate(-47.68359375 0)" fill="#ffffff" stroke="#000000" stroke-width="0"><rect x="0" y="0" width="95.3671875" height="26" rx="5" ry="5" stroke="none"/><text xml:space="preserve" x="5" y="17.45703125" stroke="none" text-anchor="left" font-family="sans-serif" font-size="16" font-weight="normal" fill="#000000">HAS_ROLE</text></g></g></g></g><g class="relationship"><g transform="translate(-657.1779414415171 -2042.4437542616715) rotate(-90)" stroke-width="5" stroke="#000000"><path d="M 59 0 L 197.56531774390757 0"/><polygon points="-24.8621506177483,0 -27.62461179749811,9.20820393249937 0,0 -27.62461179749811,-9.20820393249937" fill="#000000" transform="translate(222.42746836165588 0) rotate(0)" stroke="none"/></g><g transform="translate(-657.1779414415171 -2170.726413133625) rotate(90) translate(0 -13)"><g transform="translate(0 0)"><g transform="translate(-37.7578125 0)" fill="#ffffff" stroke="#000000" stroke-width="0"><rect x="0" y="0" width="75.515625" height="26" rx="5" ry="5" stroke="none"/><text xml:space="preserve" x="5" y="17.45703125" stroke="none" text-anchor="left" font-family="sans-serif" font-size="16" font-weight="normal" fill="#000000">SERVED</text></g></g></g></g><g class="relationship"><g transform="translate(-791.0987449904853 -1663.2617306962138) rotate(-110.94925520539773)" stroke-width="5" stroke="#000000"><path d="M 59 0 L 322.15889807493465 0"/><polygon points="-24.8621506177483,0 -27.62461179749811,9.20820393249937 0,0 -27.62461179749811,-9.20820393249937" fill="#000000" transform="translate(347.02104869268294 0) rotate(0)" stroke="none"/></g><g transform="translate(-859.2387062073025 -1841.243392899923) rotate(69.05074479460228) translate(0 -13)"><g transform="translate(0 0)"><g transform="translate(-47.68359375 0)" fill="#ffffff" stroke="#000000" stroke-width="0"><rect x="0" y="0" width="95.3671875" height="26" rx="5" ry="5" stroke="none"/><text xml:space="preserve" x="5" y="17.45703125" stroke="none" text-anchor="left" font-family="sans-serif" font-size="16" font-weight="normal" fill="#000000">HAS_ROLE</text></g></g></g></g><g class="relationship"><g transform="translate(-936.2679048913083 -2042.4437542616715) rotate(-90)" stroke-width="5" stroke="#000000"><path d="M 59 0 L 197.56531774390757 0"/><polygon points="-24.8621506177483,0 -27.62461179749811,9.20820393249937 0,0 -27.62461179749811,-9.20820393249937" fill="#000000" transform="translate(222.42746836165588 0) rotate(0)" stroke="none"/></g><g transform="translate(-936.2679048913083 -2170.726413133625) rotate(90) translate(0 -13)"><g transform="translate(0 0)"><g transform="translate(-37.7578125 0)" fill="#ffffff" stroke="#000000" stroke-width="0"><rect x="0" y="0" width="75.515625" height="26" rx="5" ry="5" stroke="none"/><text xml:space="preserve" x="5" y="17.45703125" stroke="none" text-anchor="left" font-family="sans-serif" font-size="16" font-weight="normal" fill="#000000">SERVED</text></g></g></g></g><g class="relationship"><g transform="translate(-791.0987449904853 -1663.2617306962138) rotate(-48.94838940878038)" stroke-width="5" stroke="#000000"><path d="M 59 0 L 418.95288141731925 0"/><polygon points="-24.8621506177483,0 -27.62461179749811,9.20820393249937 0,0 -27.62461179749811,-9.20820393249937" fill="#000000" transform="translate(443.81503203506753 0) rotate(0)" stroke="none"/></g><g transform="translate(-634.1536952161018 -1843.4782409417953) rotate(-48.94838940878038) translate(0 -13)"><g transform="translate(0 0)"><g transform="translate(-47.68359375 0)" fill="#ffffff" stroke="#000000" stroke-width="0"><rect x="0" y="0" width="95.3671875" height="26" rx="5" ry="5" stroke="none"/><text xml:space="preserve" x="5" y="17.45703125" stroke="none" text-anchor="left" font-family="sans-serif" font-size="16" font-weight="normal" fill="#000000">HAS_ROLE</text></g></g></g></g><g class="relationship"><g transform="translate(-791.0987449904853 -1663.2617306962138) rotate(90)" stroke-width="5" stroke="#000000"><path d="M 59 0 L 248.02274466565402 0"/><polygon points="-24.8621506177483,0 -27.62461179749811,9.20820393249937 0,0 -27.62461179749811,-9.20820393249937" fill="#000000" transform="translate(272.88489528340233 0) rotate(0)" stroke="none"/></g><g transform="translate(-791.0987449904853 -1509.7503583633868) rotate(270) translate(0 -13)"><g transform="translate(0 0)"><g transform="translate(-47.68359375 0)" fill="#ffffff" stroke="#000000" stroke-width="0"><rect x="0" y="0" width="95.3671875" height="26" rx="5" ry="5" stroke="none"/><text xml:space="preserve" x="5" y="17.45703125" stroke="none" text-anchor="left" font-family="sans-serif" font-size="16" font-weight="normal" fill="#000000">HAS_ROLE</text></g></g></g></g><g class="relationship"><g transform="translate(-460.88071179842797 -2042.4437542616715) rotate(-65.00904270531981)" stroke-width="5" stroke="#000000"><path d="M 59 0 L 226.63585652915643 0"/><polygon points="-24.8621506177483,0 -27.62461179749811,9.20820393249937 0,0 -27.62461179749811,-9.20820393249937" fill="#000000" transform="translate(251.49800714690474 0) rotate(0)" stroke="none"/></g><g transform="translate(-400.5436763536352 -2171.8902790799148) rotate(-65.00904270531981) translate(0 -13)"><g transform="translate(0 0)"><g transform="translate(-37.7578125 0)" fill="#ffffff" stroke="#000000" stroke-width="0"><rect x="0" y="0" width="75.515625" height="26" rx="5" ry="5" stroke="none"/><text xml:space="preserve" x="5" y="17.45703125" stroke="none" text-anchor="left" font-family="sans-serif" font-size="16" font-weight="normal" fill="#000000">SERVED</text></g></g></g></g><g class="relationship"><g transform="translate(-791.0987449904853 -1331.3768354128115) rotate(90.00000186268845)" stroke-width="5" stroke="#000000"><path d="M 59 0 L 248.0227446656542 0"/><polygon points="-24.8621506177483,0 -27.62461179749811,9.20820393249937 0,0 -27.62461179749811,-9.20820393249937" fill="#000000" transform="translate(272.8848952834025 0) rotate(0)" stroke="none"/></g><g transform="translate(-791.0987499811471 -1177.8654630799845) rotate(270.00000186268846) translate(0 -13)"><g transform="translate(0 0)"><g transform="translate(-37.7578125 0)" fill="#ffffff" stroke="#000000" stroke-width="0"><rect x="0" y="0" width="75.515625" height="26" rx="5" ry="5" stroke="none"/><text xml:space="preserve" x="5" y="17.45703125" stroke="none" text-anchor="left" font-family="sans-serif" font-size="16" font-weight="normal" fill="#000000">SERVED</text></g></g></g></g><g class="relationship"><g transform="translate(-1302.2009182267884 -2326.4677868079843) rotate(-41.880665125003816)" stroke-width="5" stroke="#000000"><path d="M 59 0 L 602.6077807912218 0"/><polygon points="-24.8621506177483,0 -27.62461179749811,9.20820393249937 0,0 -27.62461179749811,-9.20820393249937" fill="#000000" transform="translate(627.4699314089701 0) rotate(0)" stroke="none"/></g><g transform="translate(-1055.9052254945557 -2547.306292604462) rotate(-41.880665125003816) translate(0 -13)"><g transform="translate(0 0)"><g transform="translate(-32.859375 0)" fill="#ffffff" stroke="#000000" stroke-width="0"><rect x="0" y="0" width="65.71875" height="26" rx="5" ry="5" stroke="none"/><text xml:space="preserve" x="5" y="17.45703125" stroke="none" text-anchor="left" font-family="sans-serif" font-size="16" font-weight="normal" fill="#000000">IN_CAT</text></g></g></g></g><g class="relationship"><g transform="translate(-329.702998395013 -2323.8712226233274) rotate(-135.03259465162415)" stroke-width="5" stroke="#000000"><path d="M 59 0 L 568.279084677167 0"/><polygon points="-24.8621506177483,0 -27.62461179749811,9.20820393249937 0,0 -27.62461179749811,-9.20820393249937" fill="#000000" transform="translate(593.1412352949153 0) rotate(0)" stroke="none"/></g><g transform="translate(-551.6057749212214 -2545.5216687954835) rotate(44.96740534837584) translate(0 -13)"><g transform="translate(0 0)"><g transform="translate(-32.859375 0)" fill="#ffffff" stroke="#000000" stroke-width="0"><rect x="0" y="0" width="65.71875" height="26" rx="5" ry="5" stroke="none"/><text xml:space="preserve" x="5" y="17.45703125" stroke="none" text-anchor="left" font-family="sans-serif" font-size="16" font-weight="normal" fill="#000000">IN_CAT</text></g></g></g></g><g class="relationship"><g transform="translate(-1294.2722042801217 -1873.5438995539025) rotate(-135.50144788453687)" stroke-width="5" stroke="#000000"><path d="M 59 0 L 344.8060302699539 0"/><polygon points="-24.8621506177483,0 -27.62461179749811,9.20820393249937 0,0 -27.62461179749811,-9.20820393249937" fill="#000000" transform="translate(369.6681808877022 0) rotate(0)" stroke="none"/></g><g transform="translate(-1438.2831966161925 -2015.0559541887458) rotate(44.49855211546312) translate(0 -13)"><g transform="translate(0 0)"><g transform="translate(-29.44921875 0)" fill="#ffffff" stroke="#000000" stroke-width="0"><rect x="0" y="0" width="58.8984375" height="26" rx="5" ry="5" stroke="none"/><text xml:space="preserve" x="5" y="17.45703125" stroke="none" text-anchor="left" font-family="sans-serif" font-size="16" font-weight="normal" fill="#000000">HQ_IN</text></g></g></g></g><g class="relationship"><g transform="translate(-791.0987449904853 -1663.2617306962138) rotate(168.78841337686185)" stroke-width="5" stroke="#000000"><path d="M 59 0 L 645.7884695793381 0"/><polygon points="-24.8621506177483,0 -27.62461179749811,9.20820393249937 0,0 -27.62461179749811,-9.20820393249937" fill="#000000" transform="translate(670.6506201970864 0) rotate(0)" stroke="none"/></g><g transform="translate(-1136.7678375656437 -1594.7447608911873) rotate(348.78841337686185) translate(0 -13)"><g transform="translate(0 0)"><g transform="translate(-61.0234375 0)" fill="#ffffff" stroke="#000000" stroke-width="0"><rect x="0" y="0" width="122.046875" height="26" rx="5" ry="5" stroke="none"/><text xml:space="preserve" x="5" y="17.45703125" stroke="none" text-anchor="left" font-family="sans-serif" font-size="16" font-weight="normal" fill="#000000">IS_EMPLOYEE</text></g></g></g></g><g class="relationship"><g transform="translate(-791.0987449904853 -1663.2617306962138) rotate(144.02531885857914)" stroke-width="5" stroke="#000000"><path d="M 59 0 L 528.2464212052001 0"/><polygon points="-24.8621506177483,0 -27.62461179749811,9.20820393249937 0,0 -27.62461179749811,-9.20820393249937" fill="#000000" transform="translate(553.1085718229484 0) rotate(0)" stroke="none"/></g><g transform="translate(-1028.7211550432041 -1490.7793256651023) rotate(324.0253188585791) translate(0 -13)"><g transform="translate(0 0)"><g transform="translate(-37.89453125 0)" fill="#ffffff" stroke="#000000" stroke-width="0"><rect x="0" y="0" width="75.7890625" height="26" rx="5" ry="5" stroke="none"/><text xml:space="preserve" x="5" y="17.45703125" stroke="none" text-anchor="left" font-family="sans-serif" font-size="16" font-weight="normal" fill="#000000">POSTED</text></g></g></g></g><g class="relationship"><g transform="translate(-791.0987449904853 -1663.2617306962138) rotate(155.2783844710629)" stroke-width="5" stroke="#000000"><path d="M 59 0 L 461.4837219007775 0"/><polygon points="-24.8621506177483,0 -27.62461179749811,9.20820393249937 0,0 -27.62461179749811,-9.20820393249937" fill="#000000" transform="translate(486.34587251852577 0) rotate(0)" stroke="none"/></g><g transform="translate(-1027.4895610341757 -1554.426036729944) rotate(335.2783844710629) translate(0 -13)"><g transform="translate(0 0)"><g transform="translate(-37.89453125 0)" fill="#ffffff" stroke="#000000" stroke-width="0"><rect x="0" y="0" width="75.7890625" height="26" rx="5" ry="5" stroke="none"/><text xml:space="preserve" x="5" y="17.45703125" stroke="none" text-anchor="left" font-family="sans-serif" font-size="16" font-weight="normal" fill="#000000">POSTED</text></g></g></g></g><g class="relationship"><g transform="translate(-791.0987449904853 -1663.2617306962138) rotate(135.24947413437806)" stroke-width="5" stroke="#000000"><path d="M 59 0 L 613.6595138501045 0"/><polygon points="-24.8621506177483,0 -27.62461179749811,9.20820393249937 0,0 -27.62461179749811,-9.20820393249937" fill="#000000" transform="translate(638.5216644678528 0) rotate(0)" stroke="none"/></g><g transform="translate(-1029.9530465380976 -1426.4784373128607) rotate(315.2494741343781) translate(0 -13)"><g transform="translate(0 0)"><g transform="translate(-37.89453125 0)" fill="#ffffff" stroke="#000000" stroke-width="0"><rect x="0" y="0" width="75.7890625" height="26" rx="5" ry="5" stroke="none"/><text xml:space="preserve" x="5" y="17.45703125" stroke="none" text-anchor="left" font-family="sans-serif" font-size="16" font-weight="normal" fill="#000000">POSTED</text></g></g></g></g><g class="relationship"><g transform="translate(-1286.4639232132479 -1303.6922048692045) rotate(180)" stroke-width="5" stroke="#000000"><path d="M 59 0 L 274.35837925223996 0"/><polygon points="-24.8621506177483,0 -27.62461179749811,9.20820393249937 0,0 -27.62461179749811,-9.20820393249937" fill="#000000" transform="translate(299.22052986998824 0) rotate(0)" stroke="none"/></g><g transform="translate(-1453.1431128393679 -1303.6922048692045) rotate(360) translate(0 -13)"><g transform="translate(0 0)"><g transform="translate(-66.05078125 0)" fill="#ffffff" stroke="#000000" stroke-width="0"><rect x="0" y="0" width="132.1015625" height="26" rx="5" ry="5" stroke="none"/><text xml:space="preserve" x="5" y="17.45703125" stroke="none" text-anchor="left" font-family="sans-serif" font-size="16" font-weight="normal" fill="#000000">CONTAINS_TAG</text></g></g></g></g><g class="relationship"><g transform="translate(-1286.4639232132479 -1435.1927479797496) rotate(159.84212586604187)" stroke-width="5" stroke="#000000"><path d="M 59 0 L 297.73232111723826 0"/><polygon points="-24.8621506177483,0 -27.62461179749811,9.20820393249937 0,0 -27.62461179749811,-9.20820393249937" fill="#000000" transform="translate(322.5944717349866 0) rotate(0)" stroke="none"/></g><g transform="translate(-1453.9045579155188 -1373.7263255775651) rotate(339.8421258660419) translate(0 -13)"><g transform="translate(0 0)"><g transform="translate(-66.05078125 0)" fill="#ffffff" stroke="#000000" stroke-width="0"><rect x="0" y="0" width="132.1015625" height="26" rx="5" ry="5" stroke="none"/><text xml:space="preserve" x="5" y="17.45703125" stroke="none" text-anchor="left" font-family="sans-serif" font-size="16" font-weight="normal" fill="#000000">CONTAINS_TAG</text></g></g></g></g><g class="relationship"><g transform="translate(-1286.4639232132479 -1172.1916617586594) rotate(-159.84212586604187)" stroke-width="5" stroke="#000000"><path d="M 59 0 L 297.73232111723826 0"/><polygon points="-24.8621506177483,0 -27.62461179749811,9.20820393249937 0,0 -27.62461179749811,-9.20820393249937" fill="#000000" transform="translate(322.5944717349866 0) rotate(0)" stroke="none"/></g><g transform="translate(-1453.9045579155188 -1233.6580841608438) rotate(20.157874133958128) translate(0 -13)"><g transform="translate(0 0)"><g transform="translate(-66.05078125 0)" fill="#ffffff" stroke="#000000" stroke-width="0"><rect x="0" y="0" width="132.1015625" height="26" rx="5" ry="5" stroke="none"/><text xml:space="preserve" x="5" y="17.45703125" stroke="none" text-anchor="left" font-family="sans-serif" font-size="16" font-weight="normal" fill="#000000">CONTAINS_TAG</text></g></g></g></g><g class="node"><g fill="#ffffff" stroke="#000000" stroke-width="4"><circle cx="-791.0987449904853" cy="-2531.2559811074557" r="52"/></g><g transform="translate(-791.0987449904853 -2531.2559811074557)"><g transform="scale(0.5971896011417263) translate(0 -27)"><g transform="translate(0 0)"><g transform="translate(-70.349609375 0)"><g fill="#ffffff" stroke="#000000" stroke-width="4"><rect x="0" y="0" width="140.69921875" height="54" rx="27" ry="27"/><text xml:space="preserve" x="27" y="38.142578125" stroke="none" font-family="sans-serif" font-size="40" font-weight="normal" fill="#000000">Card</text></g></g></g></g></g></g><g class="node"><g fill="#ffffff" stroke="#000000" stroke-width="4"><circle cx="-329.702998395013" cy="-2323.8712226233274" r="52"/></g><g transform="translate(-329.702998395013 -2323.8712226233274)"><g transform="scale(0.5390629609375) translate(0 0)"><g transform="translate(0 0)"><g font-family="sans-serif" font-size="50" font-weight="normal" fill="#000000" text-anchor="middle"><text xml:space="preserve" x="0" y="13.92822265625" stroke="none">Project</text></g></g></g></g></g><g class="node"><g fill="#ffffff" stroke="#000000" stroke-width="4"><circle cx="-1302.2009182267884" cy="-2326.4677868079843" r="52"/></g><g transform="translate(-1302.2009182267884 -2326.4677868079843)"><g transform="scale(0.46484428515625) translate(0 0)"><g transform="translate(0 0)"><g font-family="sans-serif" font-size="50" font-weight="normal" fill="#000000" text-anchor="middle"><text xml:space="preserve" x="0" y="13.92822265625" stroke="none">Member</text></g></g></g></g></g><g class="node"><g fill="#ffffff" stroke="#000000" stroke-width="4"><circle cx="24.287717050462458" cy="-2531.2559811074557" r="52"/></g><g transform="translate(24.287717050462458 -2531.2559811074557)"><g transform="scale(0.49218800781249994) translate(0 0)"><g transform="translate(0 0)"><g font-family="sans-serif" font-size="50" font-weight="normal" fill="#000000" text-anchor="middle"><text xml:space="preserve" x="0" y="13.92822265625" stroke="none">License</text></g></g></g></g></g><g class="node"><g fill="#ffffff" stroke="#000000" stroke-width="4"><circle cx="24.287717050462458" cy="-2323.8712226233274" r="52"/></g><g transform="translate(24.287717050462458 -2323.8712226233274)"><g transform="scale(0.388672486328125) translate(0 0)"><g transform="translate(0 0)"><g font-family="sans-serif" font-size="50" font-weight="normal" fill="#000000" text-anchor="middle"><text xml:space="preserve" x="0" y="13.92822265625" stroke="none">Language</text></g></g></g></g></g><g class="node"><g fill="#ffffff" stroke="#000000" stroke-width="4"><circle cx="-334.3664756018067" cy="-1873.5438995539025" r="52"/></g><g transform="translate(-334.3664756018067 -1873.5438995539025)"><g transform="scale(0.46484428515625) translate(0 0)"><g transform="translate(0 0)"><g font-family="sans-serif" font-size="50" font-weight="normal" fill="#000000" text-anchor="middle"><text xml:space="preserve" x="0" y="13.92822265625" stroke="none">GitRepo</text></g></g></g></g></g><g class="node"><g fill="#ffffff" stroke="#000000" stroke-width="4"><circle cx="24.287717050462458" cy="-1873.5438995539025" r="52"/></g><g transform="translate(24.287717050462458 -1873.5438995539025)"><g transform="scale(0.5625004375) translate(0 0)"><g transform="translate(0 0)"><g font-family="sans-serif" font-size="50" font-weight="normal" fill="#000000" text-anchor="middle"><text xml:space="preserve" x="0" y="13.92822265625" stroke="none">GitOrg</text></g></g></g></g></g><g class="node"><g fill="#ffffff" stroke="#000000" stroke-width="4"><circle cx="-657.1779414415171" cy="-2323.8712226233274" r="52"/></g><g transform="translate(-657.1779414415171 -2323.8712226233274)"><g transform="scale(0.578125421875) translate(0 0)"><g transform="translate(0 0)"><g font-family="sans-serif" font-size="50" font-weight="normal" fill="#000000" text-anchor="middle"><text xml:space="preserve" x="0" y="13.92822265625" stroke="none">TAGrp</text></g></g></g></g></g><g class="node"><g fill="#ffffff" stroke="#000000" stroke-width="4"><circle cx="-791.0987449904853" cy="-1663.2617306962138" r="52"/></g><g transform="translate(-791.0987449904853 -1663.2617306962138)"><g transform="scale(0.5312504687499999) translate(0 0)"><g transform="translate(0 0)"><g font-family="sans-serif" font-size="50" font-weight="normal" fill="#000000" text-anchor="middle"><text xml:space="preserve" x="0" y="13.92822265625" stroke="none">Person</text></g></g></g></g></g><g class="node"><g fill="#ffffff" stroke="#000000" stroke-width="4"><circle cx="-334.3664756018067" cy="-1663.2617306962138" r="52"/></g><g transform="translate(-334.3664756018067 -1663.2617306962138)"><g transform="scale(0.49218800781249994) translate(0 0)"><g transform="translate(0 0)"><g font-family="sans-serif" font-size="50" font-weight="normal" fill="#000000" text-anchor="middle"><text xml:space="preserve" x="0" y="13.92822265625" stroke="none">Commit</text></g></g></g></g></g><g class="node"><g fill="#ffffff" stroke="#000000" stroke-width="4"><circle cx="24.287717050462458" cy="-1663.2617306962138" r="52"/></g><g transform="translate(24.287717050462458 -1663.2617306962138)"><g transform="scale(0.5312504687499999) translate(0 0)"><g transform="translate(0 0)"><g font-family="sans-serif" font-size="50" font-weight="normal" fill="#000000" text-anchor="middle"><text xml:space="preserve" x="0" y="13.92822265625" stroke="none">Branch</text></g></g></g></g></g><g class="node"><g fill="#ffffff" stroke="#000000" stroke-width="4"><circle cx="-936.2679048913083" cy="-2323.8712226233274" r="52"/></g><g transform="translate(-936.2679048913083 -2323.8712226233274)"><g transform="scale(0.546875453125) translate(0 0)"><g transform="translate(0 0)"><g font-family="sans-serif" font-size="50" font-weight="normal" fill="#000000" text-anchor="middle"><text xml:space="preserve" x="0" y="13.92822265625" stroke="none">EUGrp</text></g></g></g></g></g><g class="node"><g fill="#ffffff" stroke="#000000" stroke-width="4"><circle cx="-329.702998395013" cy="-1359.0282889940045" r="52"/></g><g transform="translate(-329.702998395013 -1359.0282889940045)"><g transform="scale(0.9765625234374999) translate(0 0)"><g transform="translate(0 0)"><g font-family="sans-serif" font-size="50" font-weight="normal" fill="#000000" text-anchor="middle"><text xml:space="preserve" x="0" y="13.92822265625" stroke="none">PR</text></g></g></g></g></g><g class="node"><g fill="#ffffff" stroke="#000000" stroke-width="4"><circle cx="-791.0987449904853" cy="-2784.742306328505" r="52"/></g><g transform="translate(-791.0987449904853 -2784.742306328505)"><g transform="scale(0.421875578125) translate(0 0)"><g transform="translate(0 0)"><g font-family="sans-serif" font-size="50" font-weight="normal" fill="#000000" text-anchor="middle"><text xml:space="preserve" x="0" y="13.92822265625" stroke="none">Category</text></g></g></g></g></g><g class="node"><g fill="#ffffff" stroke="#000000" stroke-width="4"><circle cx="-1302.200918226788" cy="-2692.4100122949453" r="52"/></g><g transform="translate(-1302.200918226788 -2692.4100122949453)"><g transform="scale(0.73828151171875) translate(0 0)"><g transform="translate(0 0)"><g font-family="sans-serif" font-size="50" font-weight="normal" fill="#000000" text-anchor="middle"><text xml:space="preserve" x="0" y="13.92822265625" stroke="none">MLvl</text></g></g></g></g></g><g class="node"><g fill="#ffffff" stroke="#000000" stroke-width="4"><circle cx="-329.702998395013" cy="-2692.4100122949453" r="52"/></g><g transform="translate(-329.702998395013 -2692.4100122949453)"><g transform="scale(0.78125021875) translate(0 0)"><g transform="translate(0 0)"><g font-family="sans-serif" font-size="50" font-weight="normal" fill="#000000" text-anchor="middle"><text xml:space="preserve" x="0" y="13.92822265625" stroke="none">PLvl</text></g></g></g></g></g><g class="node"><g fill="#ffffff" stroke="#000000" stroke-width="4"><circle cx="-1294.2722042801217" cy="-1873.5438995539025" r="52"/></g><g transform="translate(-1294.2722042801217 -1873.5438995539025)"><g transform="scale(0.875000125) translate(0 0)"><g transform="translate(0 0)"><g font-family="sans-serif" font-size="50" font-weight="normal" fill="#000000" text-anchor="middle"><text xml:space="preserve" x="0" y="13.92822265625" stroke="none">Org</text></g></g></g></g></g><g class="node"><g fill="#ffffff" stroke="#000000" stroke-width="4"><circle cx="-1736.4295478947952" cy="-1972.0314400745788" r="52"/></g><g transform="translate(-1736.4295478947952 -1972.0314400745788)"><g transform="scale(0.4765630234375) translate(0 0)"><g transform="translate(0 0)"><g font-family="sans-serif" font-size="50" font-weight="normal" fill="#000000" text-anchor="middle"><text xml:space="preserve" x="0" y="13.92822265625" stroke="none">Industry</text><text xml:space="preserve" x="0" y="73.92822265625" stroke="none" text-anchor="middle"></text></g></g></g></g></g><g class="node"><g fill="#ffffff" stroke="#000000" stroke-width="4"><circle cx="-1506.8246079035598" cy="-1521.393775500801" r="52"/></g><g transform="translate(-1506.8246079035598 -1521.393775500801)"><g transform="scale(0.4765630234375) translate(0 0)"><g transform="translate(0 0)"><g font-family="sans-serif" font-size="50" font-weight="normal" fill="#000000" text-anchor="middle"><text xml:space="preserve" x="0" y="13.92822265625" stroke="none">Investor</text><text xml:space="preserve" x="0" y="73.92822265625" stroke="none" text-anchor="middle"></text></g></g></g></g></g><g class="node"><g fill="#ffffff" stroke="#000000" stroke-width="4"><circle cx="-1710.1678821458704" cy="-1694.0064458491515" r="52"/></g><g transform="translate(-1710.1678821458704 -1694.0064458491515)"><g transform="scale(0.47265677734375) translate(0 0)"><g transform="translate(0 0)"><g font-family="sans-serif" font-size="50" font-weight="normal" fill="#000000" text-anchor="middle"><text xml:space="preserve" x="0" y="13.92822265625" stroke="none">Funding</text></g></g></g></g></g><g class="node"><g fill="#ffffff" stroke="#000000" stroke-width="4"><circle cx="-657.1779414415171" cy="-2042.4437542616715" r="52"/></g><g transform="translate(-657.1779414415171 -2042.4437542616715)"><g transform="scale(0.46484428515625) translate(0 0)"><g transform="translate(0 0)"><g font-family="sans-serif" font-size="50" font-weight="normal" fill="#000000" text-anchor="middle"><text xml:space="preserve" x="0" y="13.92822265625" stroke="none">TagRole</text><text xml:space="preserve" x="0" y="73.92822265625" stroke="none" text-anchor="middle"></text></g></g></g></g></g><g class="node"><g fill="#ffffff" stroke="#000000" stroke-width="4"><circle cx="-936.2679048913083" cy="-2042.4437542616715" r="52"/></g><g transform="translate(-936.2679048913083 -2042.4437542616715)"><g transform="scale(0.5117192382812499) translate(0 0)"><g transform="translate(0 0)"><g font-family="sans-serif" font-size="50" font-weight="normal" fill="#000000" text-anchor="middle"><text xml:space="preserve" x="0" y="13.92822265625" stroke="none">EuRole</text></g></g></g></g></g><g class="node"><g fill="#ffffff" stroke="#000000" stroke-width="4"><circle cx="-460.88071179842797" cy="-2042.4437542616715" r="52"/></g><g transform="translate(-460.88071179842797 -2042.4437542616715)"><g transform="scale(0.44531305468749993) translate(0 0)"><g transform="translate(0 0)"><g font-family="sans-serif" font-size="50" font-weight="normal" fill="#000000" text-anchor="middle"><text xml:space="preserve" x="0" y="13.92822265625" stroke="none">ProjRole</text></g></g></g></g></g><g class="node"><g fill="#ffffff" stroke="#000000" stroke-width="4"><circle cx="-791.0987449904853" cy="-1331.3768354128115" r="52"/></g><g transform="translate(-791.0987449904853 -1331.3768354128115)"><g transform="scale(0.47265677734375) translate(0 0)"><g transform="translate(0 0)"><g font-family="sans-serif" font-size="50" font-weight="normal" fill="#000000" text-anchor="middle"><text xml:space="preserve" x="0" y="13.92822265625" stroke="none">TocRole</text></g></g></g></g></g><g class="node"><g fill="#ffffff" stroke="#000000" stroke-width="4"><circle cx="-791.0987557800786" cy="-999.4919401294092" r="52"/></g><g transform="translate(-791.0987557800786 -999.4919401294092)"><g transform="scale(0.6757815742187501) translate(0 0)"><g transform="translate(0 0)"><g font-family="sans-serif" font-size="50" font-weight="normal" fill="#000000" text-anchor="middle"><text xml:space="preserve" x="0" y="13.92822265625" stroke="none">TOC </text></g></g></g></g></g><g class="node"><g fill="#ffffff" stroke="#000000" stroke-width="4"><circle cx="-1600.0275694056322" cy="-2173.9936723987785" r="52"/></g><g transform="translate(-1600.0275694056322 -2173.9936723987785)"><g transform="scale(0.8515626484375001) translate(0 0)"><g transform="translate(0 0)"><g font-family="sans-serif" font-size="50" font-weight="normal" fill="#000000" text-anchor="middle"><text xml:space="preserve" x="0" y="13.92822265625" stroke="none">City</text></g></g></g></g></g><g class="node"><g fill="#ffffff" stroke="#000000" stroke-width="4"><circle cx="-1286.4639232132479" cy="-1303.6922048692045" r="52"/></g><g transform="translate(-1286.4639232132479 -1303.6922048692045)"><g transform="scale(0.6132816367187499) translate(0 0)"><g transform="translate(0 0)"><g font-family="sans-serif" font-size="50" font-weight="normal" fill="#000000" text-anchor="middle"><text xml:space="preserve" x="0" y="13.92822265625" stroke="none">Tweet</text></g></g></g></g></g><g class="node"><g fill="#ffffff" stroke="#000000" stroke-width="4"><circle cx="-1286.4639232132479" cy="-1435.1927479797496" r="52"/></g><g transform="translate(-1286.4639232132479 -1435.1927479797496)"><g transform="scale(0.7695314804687501) translate(0 0)"><g transform="translate(0 0)"><g font-family="sans-serif" font-size="50" font-weight="normal" fill="#000000" text-anchor="middle"><text xml:space="preserve" x="0" y="13.92822265625" stroke="none">Blog</text></g></g></g></g></g><g class="node"><g fill="#ffffff" stroke="#000000" stroke-width="4"><circle cx="-1286.4639232132479" cy="-1172.1916617586594" r="52"/></g><g transform="translate(-1286.4639232132479 -1172.1916617586594)"><g transform="scale(0.5390629609375) translate(0 0)"><g transform="translate(0 0)"><g font-family="sans-serif" font-size="50" font-weight="normal" fill="#000000" text-anchor="middle"><text xml:space="preserve" x="0" y="13.92822265625" stroke="none">LIPost </text></g></g></g></g></g><g class="node"><g fill="#ffffff" stroke="#000000" stroke-width="4"><circle cx="-1644.6844530832361" cy="-1303.6922048692045" r="52"/></g><g transform="translate(-1644.6844530832361 -1303.6922048692045)"><g transform="scale(0.45703179296874996) translate(0 0)"><g transform="translate(0 0)"><g font-family="sans-serif" font-size="50" font-weight="normal" fill="#000000" text-anchor="middle"><text xml:space="preserve" x="0" y="13.92822265625" stroke="none">Hashtag</text></g></g></g></g></g></g></svg>