<svg xmlns="http://www.w3.org/2000/svg" width="2195" height="1936" viewBox="0 0 2195 1936"><defs><style type="text/css"/></defs><g transform="translate(80.84375 79.2) scale(1)"><g class="relationship"><g transform="translate(1074.3308029043098 249.48632522104936) rotate(24.202612521374096)" stroke-width="5" stroke="#000000"><path d="M 59 0 L 421.997981264488 0"/><polygon points="-24.8621506177483,0 -27.62461179749811,9.20820393249937 0,0 -27.62461179749811,-9.20820393249937" fill="#000000" transform="translate(446.86013188223626 0) rotate(0)" stroke="none"/></g><g transform="translate(1293.6902747119325 348.08240335506525) rotate(24.202612521374096) translate(0 -13)"><g transform="translate(0 0)"><g transform="translate(-22.34375 0)" fill="#ffffff" stroke="#000000" stroke-width="0"><rect x="0" y="0" width="44.6875" height="26" rx="5" ry="5" stroke="none"/><text xml:space="preserve" x="5" y="17.45703125" stroke="none" text-anchor="left" font-family="sans-serif" font-size="16" font-weight="normal" fill="#000000">IS_A</text></g></g></g></g><g class="relationship"><g transform="translate(1074.3308029043098 249.48632522104936) rotate(158.16503289304964)" stroke-width="5" stroke="#000000"><path d="M 59 0 L 466.74082432091836 0"/><polygon points="-24.8621506177483,0 -27.62461179749811,9.20820393249937 0,0 -27.62461179749811,-9.20820393249937" fill="#000000" transform="translate(491.60297493866665 0) rotate(0)" stroke="none"/></g><g transform="translate(830.3189739640477 347.25687767237747) rotate(338.16503289304967) translate(0 -13)"><g transform="translate(0 0)"><g transform="translate(-22.34375 0)" fill="#ffffff" stroke="#000000" stroke-width="0"><rect x="0" y="0" width="44.6875" height="26" rx="5" ry="5" stroke="none"/><text xml:space="preserve" x="5" y="17.45703125" stroke="none" text-anchor="left" font-family="sans-serif" font-size="16" font-weight="normal" fill="#000000">IS_A</text></g></g></g></g><g class="relationship"><g transform="translate(1535.726549499782 456.8710837051776) rotate(-30.363820157503582)" stroke-width="5" stroke="#000000"><path d="M 59 0 L 326.4034519778385 0"/><polygon points="-24.8621506177483,0 -27.62461179749811,9.20820393249937 0,0 -27.62461179749811,-9.20820393249937" fill="#000000" transform="translate(351.26560259558676 0) rotate(0)" stroke="none"/></g><g transform="translate(1701.9959647732753 359.4624765715203) rotate(-30.363820157503582) translate(0 -13)"><g transform="translate(0 0)"><g transform="translate(-26.78515625 0)" fill="#ffffff" stroke="#000000" stroke-width="0"><rect x="0" y="0" width="53.5703125" height="26" rx="5" ry="5" stroke="none"/><text xml:space="preserve" x="5" y="17.45703125" stroke="none" text-anchor="left" font-family="sans-serif" font-size="16" font-weight="normal" fill="#000000">USES</text></g></g></g></g><g class="relationship"><g transform="translate(1535.726549499782 456.8710837051776) rotate(0)" stroke-width="5" stroke="#000000"><path d="M 59 0 L 270.12856482772736 0"/><polygon points="-24.8621506177483,0 -27.62461179749811,9.20820393249937 0,0 -27.62461179749811,-9.20820393249937" fill="#000000" transform="translate(294.99071544547564 0) rotate(0)" stroke="none"/></g><g transform="translate(1700.290831913646 456.8710837051776) rotate(0) translate(0 -13)"><g transform="translate(0 0)"><g transform="translate(-26.78515625 0)" fill="#ffffff" stroke="#000000" stroke-width="0"><rect x="0" y="0" width="53.5703125" height="26" rx="5" ry="5" stroke="none"/><text xml:space="preserve" x="5" y="17.45703125" stroke="none" text-anchor="left" font-family="sans-serif" font-size="16" font-weight="normal" fill="#000000">USES</text></g></g></g></g><g class="relationship"><g transform="translate(1535.726549499782 456.8710837051776) rotate(90.5933195637277)" stroke-width="5" stroke="#000000"><path d="M 59 0 L 366.4893187065257 0"/><polygon points="-24.8621506177483,0 -27.62461179749811,9.20820393249937 0,0 -27.62461179749811,-9.20820393249937" fill="#000000" transform="translate(391.351469324274 0) rotate(0)" stroke="none"/></g><g transform="translate(1533.523537103154 669.6043364413594) rotate(270.5933195637277) translate(0 -13)"><g transform="translate(0 0)"><g transform="translate(-29.88671875 0)" fill="#ffffff" stroke="#000000" stroke-width="0"><rect x="0" y="0" width="59.7734375" height="26" rx="5" ry="5" stroke="none"/><text xml:space="preserve" x="5" y="17.45703125" stroke="none" text-anchor="left" font-family="sans-serif" font-size="16" font-weight="normal" fill="#000000">OWNS</text></g></g></g></g><g class="relationship"><g transform="translate(1531.0630722929884 907.1984067746025) rotate(0)" stroke-width="5" stroke="#000000"><path d="M 59 0 L 274.79204203452105 0"/><polygon points="-24.8621506177483,0 -27.62461179749811,9.20820393249937 0,0 -27.62461179749811,-9.20820393249937" fill="#000000" transform="translate(299.65419265226933 0) rotate(0)" stroke="none"/></g><g transform="translate(1697.959093310249 907.1984067746025) rotate(0) translate(0 -13)"><g transform="translate(0 0)"><g transform="translate(-41.1640625 0)" fill="#ffffff" stroke="#000000" stroke-width="0"><rect x="0" y="0" width="82.328125" height="26" rx="5" ry="5" stroke="none"/><text xml:space="preserve" x="5" y="17.45703125" stroke="none" text-anchor="left" font-family="sans-serif" font-size="16" font-weight="normal" fill="#000000">PART_OF</text></g></g></g></g><g class="relationship"><g transform="translate(1535.726549499782 456.8710837051776) rotate(180)" stroke-width="5" stroke="#000000"><path d="M 59 0 L 243.61279242875568 0"/><polygon points="-24.8621506177483,0 -27.62461179749811,9.20820393249937 0,0 -27.62461179749811,-9.20820393249937" fill="#000000" transform="translate(268.474943046504 0) rotate(0)" stroke="none"/></g><g transform="translate(1384.4201532854042 456.8710837051776) rotate(360) translate(0 -13)"><g transform="translate(0 0)"><g transform="translate(-45.45703125 0)" fill="#ffffff" stroke="#000000" stroke-width="0"><rect x="0" y="0" width="90.9140625" height="26" rx="5" ry="5" stroke="none"/><text xml:space="preserve" x="5" y="17.45703125" stroke="none" text-anchor="left" font-family="sans-serif" font-size="16" font-weight="normal" fill="#000000">IN_SCOPE</text></g></g></g></g><g class="relationship"><g transform="translate(1074.3308029043098 1117.4805756322912) rotate(-24.72161552893709)" stroke-width="5" stroke="#000000"><path d="M 59 0 L 418.9528814173192 0"/><polygon points="-24.8621506177483,0 -27.62461179749811,9.20820393249937 0,0 -27.62461179749811,-9.20820393249937" fill="#000000" transform="translate(443.8150320350675 0) rotate(0)" stroke="none"/></g><g transform="translate(1291.4051645309582 1017.5382885954091) rotate(-24.72161552893709) translate(0 -13)"><g transform="translate(0 0)"><g transform="translate(-65.75390625 0)" fill="#ffffff" stroke="#000000" stroke-width="0"><rect x="0" y="0" width="131.5078125" height="26" rx="5" ry="5" stroke="none"/><text xml:space="preserve" x="5" y="17.45703125" stroke="none" text-anchor="left" font-family="sans-serif" font-size="16" font-weight="normal" fill="#000000">IS_MAINTAINER</text></g></g></g></g><g class="relationship"><g transform="translate(1074.3308029043098 1117.4805756322912) rotate(0)" stroke-width="5" stroke="#000000"><path d="M 59 0 L 372.8701187709303 0"/><polygon points="-24.8621506177483,0 -27.62461179749811,9.20820393249937 0,0 -27.62461179749811,-9.20820393249937" fill="#000000" transform="translate(397.73226938867856 0) rotate(0)" stroke="none"/></g><g transform="translate(1290.265862289775 1117.4805756322912) rotate(0) translate(0 -13)"><g transform="translate(0 0)"><g transform="translate(-49.890625 0)" fill="#ffffff" stroke="#000000" stroke-width="0"><rect x="0" y="0" width="99.78125" height="26" rx="5" ry="5" stroke="none"/><text xml:space="preserve" x="5" y="17.45703125" stroke="none" text-anchor="left" font-family="sans-serif" font-size="16" font-weight="normal" fill="#000000">AUTHORED</text></g></g></g></g><g class="relationship"><g transform="translate(1531.0630722929884 1117.4805756322912) rotate(0)" stroke-width="5" stroke="#000000"><path d="M 59 0 L 274.79204203452105 0"/><polygon points="-24.8621506177483,0 -27.62461179749811,9.20820393249937 0,0 -27.62461179749811,-9.20820393249937" fill="#000000" transform="translate(299.65419265226933 0) rotate(0)" stroke="none"/></g><g transform="translate(1697.959093310249 1117.4805756322912) rotate(0) translate(0 -13)"><g transform="translate(0 0)"><g transform="translate(-41.1640625 0)" fill="#ffffff" stroke="#000000" stroke-width="0"><rect x="0" y="0" width="82.328125" height="26" rx="5" ry="5" stroke="none"/><text xml:space="preserve" x="5" y="17.45703125" stroke="none" text-anchor="left" font-family="sans-serif" font-size="16" font-weight="normal" fill="#000000">PART_OF</text></g></g></g></g><g class="relationship"><g transform="translate(1889.7172649452577 1117.4805756322912) rotate(-149.61652170934534)" stroke-width="5" stroke="#000000"><path d="M 59 0 L 331.89188778301656 0"/><polygon points="-24.8621506177483,0 -27.62461179749811,9.20820393249937 0,0 -27.62461179749811,-9.20820393249937" fill="#000000" transform="translate(356.75403840076484 0) rotate(0)" stroke="none"/></g><g transform="translate(1721.1139544802386 1018.6269430036468) rotate(30.383478290654665) translate(0 -13)"><g transform="translate(0 0)"><g transform="translate(-41.1640625 0)" fill="#ffffff" stroke="#000000" stroke-width="0"><rect x="0" y="0" width="82.328125" height="26" rx="5" ry="5" stroke="none"/><text xml:space="preserve" x="5" y="17.45703125" stroke="none" text-anchor="left" font-family="sans-serif" font-size="16" font-weight="normal" fill="#000000">PART_OF</text></g></g></g></g><g class="relationship"><g transform="translate(1535.726549499782 1421.7140173345006) rotate(-90.87819615021318)" stroke-width="5" stroke="#000000"><path d="M 59 0 L 220.40703130777948 0"/><polygon points="-24.8621506177483,0 -27.62461179749811,9.20820393249937 0,0 -27.62461179749811,-9.20820393249937" fill="#000000" transform="translate(245.2691819255278 0) rotate(0)" stroke="none"/></g><g transform="translate(1533.5853396774862 1282.0269116069012) rotate(89.12180384978683) translate(0 -13)"><g transform="translate(0 0)"><g transform="translate(-45.74609375 0)" fill="#ffffff" stroke="#000000" stroke-width="0"><rect x="0" y="0" width="91.4921875" height="26" rx="5" ry="5" stroke="none"/><text xml:space="preserve" x="5" y="17.45703125" stroke="none" text-anchor="left" font-family="sans-serif" font-size="16" font-weight="normal" fill="#000000">CONTAINS</text></g></g></g></g><g class="relationship"><g transform="translate(1074.3308029043098 249.48632522104936) rotate(-90)" stroke-width="5" stroke="#000000"><path d="M 59 0 L 169.62417460330107 0"/><polygon points="-24.8621506177483,0 -27.62461179749811,9.20820393249937 0,0 -27.62461179749811,-9.20820393249937" fill="#000000" transform="translate(194.48632522104936 0) rotate(0)" stroke="none"/></g><g transform="translate(1074.3308029043098 135.17423791939882) rotate(90) translate(0 -13)"><g transform="translate(0 0)"><g transform="translate(-32.859375 0)" fill="#ffffff" stroke="#000000" stroke-width="0"><rect x="0" y="0" width="65.71875" height="26" rx="5" ry="5" stroke="none"/><text xml:space="preserve" x="5" y="17.45703125" stroke="none" text-anchor="left" font-family="sans-serif" font-size="16" font-weight="normal" fill="#000000">IN_CAT</text></g></g></g></g><g class="relationship"><g transform="translate(563.2286296680068 454.2745195205207) rotate(-89.99999999999993)" stroke-width="5" stroke="#000000"><path d="M 59 0 L 282.0800748692127 0"/><polygon points="-24.8621506177483,0 -27.62461179749811,9.20820393249937 0,0 -27.62461179749811,-9.20820393249937" fill="#000000" transform="translate(306.942225486961 0) rotate(0)" stroke="none"/></g><g transform="translate(563.228629668007 283.73448208591435) rotate(-89.99999999999993) translate(0 -13)"><g transform="translate(0 0)"><g transform="translate(-37.31640625 0)" fill="#ffffff" stroke="#000000" stroke-width="0"><rect x="0" y="0" width="74.6328125" height="26" rx="5" ry="5" stroke="none"/><text xml:space="preserve" x="5" y="17.45703125" stroke="none" text-anchor="left" font-family="sans-serif" font-size="16" font-weight="normal" fill="#000000">IS_MLVL</text></g></g></g></g><g class="relationship"><g transform="translate(1535.726549499782 1421.7140173345006) rotate(-40.67705013302429)" stroke-width="5" stroke="#000000"><path d="M 59 0 L 382.9005446263889 0"/><polygon points="-24.8621506177483,0 -27.62461179749811,9.20820393249937 0,0 -27.62461179749811,-9.20820393249937" fill="#000000" transform="translate(407.7626952441372 0) rotate(0)" stroke="none"/></g><g transform="translate(1703.294235972907 1277.6998052395852) rotate(-40.67705013302429) translate(0 -13)"><g transform="translate(0 0)"><g transform="translate(-45.00390625 0)" fill="#ffffff" stroke="#000000" stroke-width="0"><rect x="0" y="0" width="90.0078125" height="26" rx="5" ry="5" stroke="none"/><text xml:space="preserve" x="5" y="17.45703125" stroke="none" text-anchor="left" font-family="sans-serif" font-size="16" font-weight="normal" fill="#000000">CHANGED</text></g></g></g></g><g class="relationship"><g transform="translate(1535.726549499782 456.8710837051776) rotate(-90)" stroke-width="5" stroke="#000000"><path d="M 59 0 L 284.6766390538696 0"/><polygon points="-24.8621506177483,0 -27.62461179749811,9.20820393249937 0,0 -27.62461179749811,-9.20820393249937" fill="#000000" transform="translate(309.5387896716179 0) rotate(0)" stroke="none"/></g><g transform="translate(1535.726549499782 285.0327641782428) rotate(90) translate(0 -13)"><g transform="translate(0 0)"><g transform="translate(-35.98828125 0)" fill="#ffffff" stroke="#000000" stroke-width="0"><rect x="0" y="0" width="71.9765625" height="26" rx="5" ry="5" stroke="none"/><text xml:space="preserve" x="5" y="17.45703125" stroke="none" text-anchor="left" font-family="sans-serif" font-size="16" font-weight="normal" fill="#000000">IS_PLVL</text></g></g></g></g><g class="relationship"><g transform="translate(563.2286296680068 454.2745195205207) rotate(0.4065489223511818)" stroke-width="5" stroke="#000000"><path d="M 59 0 L 282.0800748692126 0"/><polygon points="-24.8621506177483,0 -27.62461179749811,9.20820393249937 0,0 -27.62461179749811,-9.20820393249937" fill="#000000" transform="translate(306.9422254869609 0) rotate(0)" stroke="none"/></g><g transform="translate(733.7643739641094 455.48459620042144) rotate(0.4065489223511818) translate(0 -13)"><g transform="translate(0 0)"><g transform="translate(-55.671875 0)" fill="#ffffff" stroke="#000000" stroke-width="0"><rect x="0" y="0" width="111.34375" height="26" rx="5" ry="5" stroke="none"/><text xml:space="preserve" x="5" y="17.45703125" stroke="none" text-anchor="left" font-family="sans-serif" font-size="16" font-weight="normal" fill="#000000">MEMBER_OF</text></g></g></g></g><g class="relationship"><g transform="translate(1074.3308029043098 1117.4805756322912) rotate(33.399913609019045)" stroke-width="5" stroke="#000000"><path d="M 57.78386207693039 -11.917436111609138 L 92.97590692370865 -19.17549971317315 A 40 40 0 0 1 101.0555246264945 -20 L 276.33495165576 -20 L 451.6143786850255 -20 A 40 40 0 0 1 459.6939963878113 -19.175499713173153 L 470.53636187472796 -16.939352918121326 L 470.53636187472796 -16.939352918121326"/><polygon points="-24.8621506177483,0 -27.62461179749811,9.20820393249937 0,0 -27.62461179749811,-9.20820393249937" fill="#000000" transform="translate(552.66990331152 0) rotate(11.653378884016742) translate(-59 0)" stroke="none"/></g><g transform="translate(1316.0382658279432 1252.9003226177717) rotate(33.399913609019045) translate(0 -13)"><g transform="translate(0 0)"><g transform="translate(-47.671875 0)" fill="#ffffff" stroke="#000000" stroke-width="0"><rect x="0" y="0" width="95.34375" height="26" rx="5" ry="5" stroke="none"/><text xml:space="preserve" x="5" y="17.45703125" stroke="none" text-anchor="left" font-family="sans-serif" font-size="16" font-weight="normal" fill="#000000">REVIEWED</text></g></g></g></g><g class="relationship"><g transform="translate(1074.3308029043098 1117.4805756322912) rotate(33.399913609019045)" stroke-width="5" stroke="#000000"><path d="M 59 0 L 468.8077526937717 0"/><polygon points="-24.8621506177483,0 -27.62461179749811,9.20820393249937 0,0 -27.62461179749811,-9.20820393249937" fill="#000000" transform="translate(493.66990331152 0) rotate(0)" stroke="none"/></g><g transform="translate(1294.6506092243521 1262.7542445954296) rotate(33.399913609019045) translate(0 -13)"><g transform="translate(0 0)"><g transform="translate(-49.45703125 0)" fill="#ffffff" stroke="#000000" stroke-width="0"><rect x="0" y="0" width="98.9140625" height="26" rx="5" ry="5" stroke="none"/><text xml:space="preserve" x="5" y="17.45703125" stroke="none" text-anchor="left" font-family="sans-serif" font-size="16" font-weight="normal" fill="#000000">APPROVED</text></g></g></g></g><g class="relationship"><g transform="translate(1074.3308029043098 1117.4805756322912) rotate(33.399913609019045)" stroke-width="5" stroke="#000000"><path d="M 57.78386207693039 11.917436111609138 L 92.97590692370865 19.17549971317315 A 40 40 0 0 0 101.0555246264945 20 L 276.33495165576 20 L 451.6143786850255 20 A 40 40 0 0 0 459.6939963878113 19.175499713173153 L 470.53636187472796 16.939352918121326 L 470.53636187472796 16.939352918121326"/><polygon points="-24.8621506177483,0 -27.62461179749811,9.20820393249937 0,0 -27.62461179749811,-9.20820393249937" fill="#000000" transform="translate(552.66990331152 0) rotate(-11.653378884016742) translate(-59 0)" stroke="none"/></g><g transform="translate(1294.0190865761488 1286.29427034902) rotate(33.399913609019045) translate(0 -13)"><g transform="translate(0 0)"><g transform="translate(-42.63671875 0)" fill="#ffffff" stroke="#000000" stroke-width="0"><rect x="0" y="0" width="85.2734375" height="26" rx="5" ry="5" stroke="none"/><text xml:space="preserve" x="5" y="17.45703125" stroke="none" text-anchor="left" font-family="sans-serif" font-size="16" font-weight="normal" fill="#000000">CREATED</text></g></g></g></g><g class="relationship"><g transform="translate(563.2286296680068 454.2745195205207) rotate(88.9971042309262)" stroke-width="5" stroke="#000000"><path d="M 59 0 L 369.1311298513954 0"/><polygon points="-24.8621506177483,0 -27.62461179749811,9.20820393249937 0,0 -27.62461179749811,-9.20820393249937" fill="#000000" transform="translate(393.99328046914366 0) rotate(0)" stroke="none"/></g><g transform="translate(566.9754062832574 668.3072921324585) rotate(88.9971042309262) translate(0 -13)"><g transform="translate(0 0)"><g transform="translate(-29.88671875 0)" fill="#ffffff" stroke="#000000" stroke-width="0"><rect x="0" y="0" width="59.7734375" height="26" rx="5" ry="5" stroke="none"/><text xml:space="preserve" x="5" y="17.45703125" stroke="none" text-anchor="left" font-family="sans-serif" font-size="16" font-weight="normal" fill="#000000">OWNS</text></g></g></g></g><g class="relationship"><g transform="translate(571.1573436146734 907.1984067746025) rotate(89.66565960993783)" stroke-width="5" stroke="#000000"><path d="M 58.695178092152055 -5.989663490593892 L 95.96898050729241 -9.793341079425122 A 40 40 0 0 1 100.0297693144747 -10 L 118 -10 L 226 -10 A 10 10 0 0 1 236 -1.7763568394002505e-15 L 236 0 L 236 1.7763568394002505e-15 A 10 10 0 0 1 226 10 L 118 10 L 100.0297693144747 10 A 40 40 0 0 0 95.96898050729241 9.793341079425122 L 83.42887907965451 8.513662064369711 L 83.42887907965451 8.513662064369711"/><polygon points="-24.8621506177483,0 -27.62461179749811,9.20820393249937 0,0 -27.62461179749811,-9.20820393249937" fill="#000000" transform="rotate(185.8266894420084) translate(-59 0)" stroke="none"/></g><g transform="translate(572.4761231124572 1133.194558999892) rotate(359.6656596099379) translate(0 -13)"><g transform="translate(0 0)"><g transform="translate(-33.45703125 0)" fill="#ffffff" stroke="#000000" stroke-width="0"><rect x="0" y="0" width="66.9140625" height="26" rx="5" ry="5" stroke="none"/><text xml:space="preserve" x="5" y="17.45703125" stroke="none" text-anchor="left" font-family="sans-serif" font-size="16" font-weight="normal" fill="#000000">IS_SUB</text></g></g></g></g><g class="relationship"><g transform="translate(571.1573436146734 907.1984067746025) rotate(-167.4427504366832)" stroke-width="5" stroke="#000000"><path d="M 59 0 L 369.1311298513954 0"/><polygon points="-24.8621506177483,0 -27.62461179749811,9.20820393249937 0,0 -27.62461179749811,-9.20820393249937" fill="#000000" transform="translate(393.99328046914366 0) rotate(0)" stroke="none"/></g><g transform="translate(362.2123865307721 860.6573389294754) rotate(12.557249563316812) translate(0 -13)"><g transform="translate(0 0)"><g transform="translate(-60.42578125 0)" fill="#ffffff" stroke="#000000" stroke-width="0"><rect x="0" y="0" width="120.8515625" height="26" rx="5" ry="5" stroke="none"/><text xml:space="preserve" x="5" y="17.45703125" stroke="none" text-anchor="left" font-family="sans-serif" font-size="16" font-weight="normal" fill="#000000">OPERATES_IN</text></g></g></g></g><g class="relationship"><g transform="translate(358.60493999123537 1259.348530827704) rotate(-139.67296282849227)" stroke-width="5" stroke="#000000"><path d="M 59 0 L 182.86546539598936 0"/><polygon points="-24.8621506177483,0 -27.62461179749811,9.20820393249937 0,0 -27.62461179749811,-9.20820393249937" fill="#000000" transform="translate(207.72761601373765 0) rotate(0)" stroke="none"/></g><g transform="translate(266.41029514196026 1181.086961082901) rotate(40.32703717150772) translate(0 -13)"><g transform="translate(0 0)"><g transform="translate(-38.33203125 0)" fill="#ffffff" stroke="#000000" stroke-width="0"><rect x="0" y="0" width="76.6640625" height="26" rx="5" ry="5" stroke="none"/><text xml:space="preserve" x="5" y="17.45703125" stroke="none" text-anchor="left" font-family="sans-serif" font-size="16" font-weight="normal" fill="#000000">FUNDED</text></g></g></g></g><g class="relationship"><g transform="translate(155.26166574892477 1086.7358604793535) rotate(-23.349310491597066)" stroke-width="5" stroke="#000000"><path d="M 59 0 L 369.1311298513953 0"/><polygon points="-24.8621506177483,0 -27.62461179749811,9.20820393249937 0,0 -27.62461179749811,-9.20820393249937" fill="#000000" transform="translate(393.9932804691436 0) rotate(0)" stroke="none"/></g><g transform="translate(351.7964645439189 1001.8940137905333) rotate(-23.349310491597066) translate(0 -13)"><g transform="translate(0 0)"><g transform="translate(-38.33203125 0)" fill="#ffffff" stroke="#000000" stroke-width="0"><rect x="0" y="0" width="76.6640625" height="26" rx="5" ry="5" stroke="none"/><text xml:space="preserve" x="5" y="17.45703125" stroke="none" text-anchor="left" font-family="sans-serif" font-size="16" font-weight="normal" fill="#000000">FUNDED</text></g></g></g></g><g class="relationship"><g transform="translate(571.1573436146734 907.1984067746025) rotate(22.680629711472736)" stroke-width="5" stroke="#000000"><path d="M 58.695178092152055 -5.989663490593891 L 95.96898050729243 -9.793341079425122 A 40 40 0 0 1 100.02976931447472 -10 L 272.6729362592632 -10 L 445.31610320405173 -10 A 40 40 0 0 1 449.3768920112341 -9.79334107942512 L 461.91699343887194 -8.51366206436971 L 461.91699343887194 -8.51366206436971"/><polygon points="-24.8621506177483,0 -27.62461179749811,9.20820393249937 0,0 -27.62461179749811,-9.20820393249937" fill="#000000" transform="translate(545.3458725185264 0) rotate(5.826689442008371) translate(-59 0)" stroke="none"/></g><g transform="translate(826.6000145887358 1003.1128061830602) rotate(22.680629711472736) translate(0 -13)"><g transform="translate(0 0)"><g transform="translate(-49.45703125 0)" fill="#ffffff" stroke="#000000" stroke-width="0"><rect x="0" y="0" width="98.9140625" height="26" rx="5" ry="5" stroke="none"/><text xml:space="preserve" x="5" y="17.45703125" stroke="none" text-anchor="left" font-family="sans-serif" font-size="16" font-weight="normal" fill="#000000">EMPLOYED</text></g></g></g></g><g class="relationship"><g transform="translate(1074.3308029043098 1117.4805756322912) rotate(-157.31937028852727)" stroke-width="5" stroke="#000000"><path d="M 58.695178092152055 -5.989663490593891 L 95.96898050729243 -9.793341079425122 A 40 40 0 0 1 100.02976931447472 -10 L 272.6729362592632 -10 L 445.31610320405173 -10 A 40 40 0 0 1 449.3768920112341 -9.79334107942512 L 461.91699343887194 -8.51366206436971 L 461.91699343887194 -8.51366206436971"/><polygon points="-24.8621506177483,0 -27.62461179749811,9.20820393249937 0,0 -27.62461179749811,-9.20820393249937" fill="#000000" transform="translate(545.3458725185264 0) rotate(5.826689442008371) translate(-59 0)" stroke="none"/></g><g transform="translate(818.8881319302475 1021.5661762238335) rotate(22.680629711472736) translate(0 -13)"><g transform="translate(0 0)"><g transform="translate(-45.45703125 0)" fill="#ffffff" stroke="#000000" stroke-width="0"><rect x="0" y="0" width="90.9140625" height="26" rx="5" ry="5" stroke="none"/><text xml:space="preserve" x="5" y="17.45703125" stroke="none" text-anchor="left" font-family="sans-serif" font-size="16" font-weight="normal" fill="#000000">IS_BOARD</text></g></g></g></g><g class="relationship"><g transform="translate(1074.3308029043098 1117.4805756322912) rotate(-70.54762404868987)" stroke-width="5" stroke="#000000"><path d="M 59 0 L 318.2743792056398 0"/><polygon points="-24.8621506177483,0 -27.62461179749811,9.20820393249937 0,0 -27.62461179749811,-9.20820393249937" fill="#000000" transform="translate(343.13652982338806 0) rotate(0)" stroke="none"/></g><g transform="translate(1137.1513679047678 939.6110562809604) rotate(-70.54762404868987) translate(0 -13)"><g transform="translate(0 0)"><g transform="translate(-47.68359375 0)" fill="#ffffff" stroke="#000000" stroke-width="0"><rect x="0" y="0" width="95.3671875" height="26" rx="5" ry="5" stroke="none"/><text xml:space="preserve" x="5" y="17.45703125" stroke="none" text-anchor="left" font-family="sans-serif" font-size="16" font-weight="normal" fill="#000000">HAS_ROLE</text></g></g></g></g><g class="relationship"><g transform="translate(1208.251606453278 738.2985520668335) rotate(-90)" stroke-width="5" stroke="#000000"><path d="M 59 0 L 197.56531774390757 0"/><polygon points="-24.8621506177483,0 -27.62461179749811,9.20820393249937 0,0 -27.62461179749811,-9.20820393249937" fill="#000000" transform="translate(222.42746836165588 0) rotate(0)" stroke="none"/></g><g transform="translate(1208.251606453278 610.0158931948797) rotate(90) translate(0 -13)"><g transform="translate(0 0)"><g transform="translate(-37.7578125 0)" fill="#ffffff" stroke="#000000" stroke-width="0"><rect x="0" y="0" width="75.515625" height="26" rx="5" ry="5" stroke="none"/><text xml:space="preserve" x="5" y="17.45703125" stroke="none" text-anchor="left" font-family="sans-serif" font-size="16" font-weight="normal" fill="#000000">SERVED</text></g></g></g></g><g class="relationship"><g transform="translate(1074.3308029043098 1117.4805756322912) rotate(-110.94925520539773)" stroke-width="5" stroke="#000000"><path d="M 59 0 L 322.15889807493465 0"/><polygon points="-24.8621506177483,0 -27.62461179749811,9.20820393249937 0,0 -27.62461179749811,-9.20820393249937" fill="#000000" transform="translate(347.02104869268294 0) rotate(0)" stroke="none"/></g><g transform="translate(1006.1908416874927 939.498913428582) rotate(69.05074479460228) translate(0 -13)"><g transform="translate(0 0)"><g transform="translate(-47.68359375 0)" fill="#ffffff" stroke="#000000" stroke-width="0"><rect x="0" y="0" width="95.3671875" height="26" rx="5" ry="5" stroke="none"/><text xml:space="preserve" x="5" y="17.45703125" stroke="none" text-anchor="left" font-family="sans-serif" font-size="16" font-weight="normal" fill="#000000">HAS_ROLE</text></g></g></g></g><g class="relationship"><g transform="translate(929.1616430034869 738.2985520668335) rotate(-90)" stroke-width="5" stroke="#000000"><path d="M 59 0 L 197.56531774390757 0"/><polygon points="-24.8621506177483,0 -27.62461179749811,9.20820393249937 0,0 -27.62461179749811,-9.20820393249937" fill="#000000" transform="translate(222.42746836165588 0) rotate(0)" stroke="none"/></g><g transform="translate(929.1616430034869 610.0158931948797) rotate(90) translate(0 -13)"><g transform="translate(0 0)"><g transform="translate(-37.7578125 0)" fill="#ffffff" stroke="#000000" stroke-width="0"><rect x="0" y="0" width="75.515625" height="26" rx="5" ry="5" stroke="none"/><text xml:space="preserve" x="5" y="17.45703125" stroke="none" text-anchor="left" font-family="sans-serif" font-size="16" font-weight="normal" fill="#000000">SERVED</text></g></g></g></g><g class="relationship"><g transform="translate(1074.3308029043098 1117.4805756322912) rotate(-48.94838940878037)" stroke-width="5" stroke="#000000"><path d="M 59 0 L 418.9528814173193 0"/><polygon points="-24.8621506177483,0 -27.62461179749811,9.20820393249937 0,0 -27.62461179749811,-9.20820393249937" fill="#000000" transform="translate(443.8150320350676 0) rotate(0)" stroke="none"/></g><g transform="translate(1231.2758526786934 937.2640653867096) rotate(-48.94838940878037) translate(0 -13)"><g transform="translate(0 0)"><g transform="translate(-47.68359375 0)" fill="#ffffff" stroke="#000000" stroke-width="0"><rect x="0" y="0" width="95.3671875" height="26" rx="5" ry="5" stroke="none"/><text xml:space="preserve" x="5" y="17.45703125" stroke="none" text-anchor="left" font-family="sans-serif" font-size="16" font-weight="normal" fill="#000000">HAS_ROLE</text></g></g></g></g><g class="relationship"><g transform="translate(1074.3308029043098 1117.4805756322912) rotate(90)" stroke-width="5" stroke="#000000"><path d="M 59 0 L 248.02274466565402 0"/><polygon points="-24.8621506177483,0 -27.62461179749811,9.20820393249937 0,0 -27.62461179749811,-9.20820393249937" fill="#000000" transform="translate(272.88489528340233 0) rotate(0)" stroke="none"/></g><g transform="translate(1074.3308029043098 1270.9919479651182) rotate(270) translate(0 -13)"><g transform="translate(0 0)"><g transform="translate(-47.68359375 0)" fill="#ffffff" stroke="#000000" stroke-width="0"><rect x="0" y="0" width="95.3671875" height="26" rx="5" ry="5" stroke="none"/><text xml:space="preserve" x="5" y="17.45703125" stroke="none" text-anchor="left" font-family="sans-serif" font-size="16" font-weight="normal" fill="#000000">HAS_ROLE</text></g></g></g></g><g class="relationship"><g transform="translate(1404.5488360963673 738.2985520668335) rotate(-65.00904270531984)" stroke-width="5" stroke="#000000"><path d="M 59 0 L 226.63585652915637 0"/><polygon points="-24.8621506177483,0 -27.62461179749811,9.20820393249937 0,0 -27.62461179749811,-9.20820393249937" fill="#000000" transform="translate(251.49800714690468 0) rotate(0)" stroke="none"/></g><g transform="translate(1464.88587154116 608.8520272485904) rotate(-65.00904270531984) translate(0 -13)"><g transform="translate(0 0)"><g transform="translate(-37.7578125 0)" fill="#ffffff" stroke="#000000" stroke-width="0"><rect x="0" y="0" width="75.515625" height="26" rx="5" ry="5" stroke="none"/><text xml:space="preserve" x="5" y="17.45703125" stroke="none" text-anchor="left" font-family="sans-serif" font-size="16" font-weight="normal" fill="#000000">SERVED</text></g></g></g></g><g class="relationship"><g transform="translate(1074.3308029043098 1449.3654709156935) rotate(90.00000186268845)" stroke-width="5" stroke="#000000"><path d="M 59 0 L 248.0227446656542 0"/><polygon points="-24.8621506177483,0 -27.62461179749811,9.20820393249937 0,0 -27.62461179749811,-9.20820393249937" fill="#000000" transform="translate(272.8848952834025 0) rotate(0)" stroke="none"/></g><g transform="translate(1074.330797913648 1602.8768432485206) rotate(270.00000186268846) translate(0 -13)"><g transform="translate(0 0)"><g transform="translate(-37.7578125 0)" fill="#ffffff" stroke="#000000" stroke-width="0"><rect x="0" y="0" width="75.515625" height="26" rx="5" ry="5" stroke="none"/><text xml:space="preserve" x="5" y="17.45703125" stroke="none" text-anchor="left" font-family="sans-serif" font-size="16" font-weight="normal" fill="#000000">SERVED</text></g></g></g></g><g class="relationship"><g transform="translate(563.2286296680068 454.2745195205207) rotate(-41.880665125003816)" stroke-width="5" stroke="#000000"><path d="M 59 0 L 602.6077807912218 0"/><polygon points="-24.8621506177483,0 -27.62461179749811,9.20820393249937 0,0 -27.62461179749811,-9.20820393249937" fill="#000000" transform="translate(627.4699314089701 0) rotate(0)" stroke="none"/></g><g transform="translate(809.5243224002395 233.43601372404285) rotate(-41.880665125003816) translate(0 -13)"><g transform="translate(0 0)"><g transform="translate(-32.859375 0)" fill="#ffffff" stroke="#000000" stroke-width="0"><rect x="0" y="0" width="65.71875" height="26" rx="5" ry="5" stroke="none"/><text xml:space="preserve" x="5" y="17.45703125" stroke="none" text-anchor="left" font-family="sans-serif" font-size="16" font-weight="normal" fill="#000000">IN_CAT</text></g></g></g></g><g class="relationship"><g transform="translate(1535.726549499782 456.8710837051776) rotate(-135.03259465162415)" stroke-width="5" stroke="#000000"><path d="M 59 0 L 568.279084677167 0"/><polygon points="-24.8621506177483,0 -27.62461179749811,9.20820393249937 0,0 -27.62461179749811,-9.20820393249937" fill="#000000" transform="translate(593.1412352949153 0) rotate(0)" stroke="none"/></g><g transform="translate(1313.823772973574 235.2206375330216) rotate(44.96740534837587) translate(0 -13)"><g transform="translate(0 0)"><g transform="translate(-32.859375 0)" fill="#ffffff" stroke="#000000" stroke-width="0"><rect x="0" y="0" width="65.71875" height="26" rx="5" ry="5" stroke="none"/><text xml:space="preserve" x="5" y="17.45703125" stroke="none" text-anchor="left" font-family="sans-serif" font-size="16" font-weight="normal" fill="#000000">IN_CAT</text></g></g></g></g><g class="relationship"><g transform="translate(571.1573436146734 907.1984067746025) rotate(-135.50144788453687)" stroke-width="5" stroke="#000000"><path d="M 59 0 L 344.8060302699539 0"/><polygon points="-24.8621506177483,0 -27.62461179749811,9.20820393249937 0,0 -27.62461179749811,-9.20820393249937" fill="#000000" transform="translate(369.6681808877022 0) rotate(0)" stroke="none"/></g><g transform="translate(427.14635127860254 765.6863521397593) rotate(44.49855211546312) translate(0 -13)"><g transform="translate(0 0)"><g transform="translate(-29.44921875 0)" fill="#ffffff" stroke="#000000" stroke-width="0"><rect x="0" y="0" width="58.8984375" height="26" rx="5" ry="5" stroke="none"/><text xml:space="preserve" x="5" y="17.45703125" stroke="none" text-anchor="left" font-family="sans-serif" font-size="16" font-weight="normal" fill="#000000">HQ_IN</text></g></g></g></g><g class="relationship"><g transform="translate(1074.3308029043098 1117.4805756322912) rotate(168.78841337686185)" stroke-width="5" stroke="#000000"><path d="M 59 0 L 645.7884695793381 0"/><polygon points="-24.8621506177483,0 -27.62461179749811,9.20820393249937 0,0 -27.62461179749811,-9.20820393249937" fill="#000000" transform="translate(670.6506201970864 0) rotate(0)" stroke="none"/></g><g transform="translate(728.6617103291514 1185.9975454373177) rotate(348.78841337686185) translate(0 -13)"><g transform="translate(0 0)"><g transform="translate(-61.0234375 0)" fill="#ffffff" stroke="#000000" stroke-width="0"><rect x="0" y="0" width="122.046875" height="26" rx="5" ry="5" stroke="none"/><text xml:space="preserve" x="5" y="17.45703125" stroke="none" text-anchor="left" font-family="sans-serif" font-size="16" font-weight="normal" fill="#000000">IS_EMPLOYEE</text></g></g></g></g><g class="relationship"><g transform="translate(1074.3308029043098 1117.4805756322912) rotate(144.02531885857914)" stroke-width="5" stroke="#000000"><path d="M 59 0 L 528.2464212052001 0"/><polygon points="-24.8621506177483,0 -27.62461179749811,9.20820393249937 0,0 -27.62461179749811,-9.20820393249937" fill="#000000" transform="translate(553.1085718229484 0) rotate(0)" stroke="none"/></g><g transform="translate(836.708392851591 1289.9629806634027) rotate(324.0253188585791) translate(0 -13)"><g transform="translate(0 0)"><g transform="translate(-37.89453125 0)" fill="#ffffff" stroke="#000000" stroke-width="0"><rect x="0" y="0" width="75.7890625" height="26" rx="5" ry="5" stroke="none"/><text xml:space="preserve" x="5" y="17.45703125" stroke="none" text-anchor="left" font-family="sans-serif" font-size="16" font-weight="normal" fill="#000000">POSTED</text></g></g></g></g><g class="relationship"><g transform="translate(1074.3308029043098 1117.4805756322912) rotate(155.2783844710629)" stroke-width="5" stroke="#000000"><path d="M 59 0 L 461.4837219007775 0"/><polygon points="-24.8621506177483,0 -27.62461179749811,9.20820393249937 0,0 -27.62461179749811,-9.20820393249937" fill="#000000" transform="translate(486.34587251852577 0) rotate(0)" stroke="none"/></g><g transform="translate(837.9399868606195 1226.3162695985611) rotate(335.2783844710629) translate(0 -13)"><g transform="translate(0 0)"><g transform="translate(-37.89453125 0)" fill="#ffffff" stroke="#000000" stroke-width="0"><rect x="0" y="0" width="75.7890625" height="26" rx="5" ry="5" stroke="none"/><text xml:space="preserve" x="5" y="17.45703125" stroke="none" text-anchor="left" font-family="sans-serif" font-size="16" font-weight="normal" fill="#000000">POSTED</text></g></g></g></g><g class="relationship"><g transform="translate(1074.3308029043098 1117.4805756322912) rotate(135.24947413437806)" stroke-width="5" stroke="#000000"><path d="M 59 0 L 613.6595138501045 0"/><polygon points="-24.8621506177483,0 -27.62461179749811,9.20820393249937 0,0 -27.62461179749811,-9.20820393249937" fill="#000000" transform="translate(638.5216644678528 0) rotate(0)" stroke="none"/></g><g transform="translate(835.4765013566976 1354.2638690156443) rotate(315.2494741343781) translate(0 -13)"><g transform="translate(0 0)"><g transform="translate(-37.89453125 0)" fill="#ffffff" stroke="#000000" stroke-width="0"><rect x="0" y="0" width="75.7890625" height="26" rx="5" ry="5" stroke="none"/><text xml:space="preserve" x="5" y="17.45703125" stroke="none" text-anchor="left" font-family="sans-serif" font-size="16" font-weight="normal" fill="#000000">POSTED</text></g></g></g></g><g class="relationship"><g transform="translate(578.9656246815473 1477.0501014593005) rotate(180)" stroke-width="5" stroke="#000000"><path d="M 59 0 L 274.35837925223996 0"/><polygon points="-24.8621506177483,0 -27.62461179749811,9.20820393249937 0,0 -27.62461179749811,-9.20820393249937" fill="#000000" transform="translate(299.22052986998824 0) rotate(0)" stroke="none"/></g><g transform="translate(412.2864350554273 1477.0501014593005) rotate(360) translate(0 -13)"><g transform="translate(0 0)"><g transform="translate(-66.05078125 0)" fill="#ffffff" stroke="#000000" stroke-width="0"><rect x="0" y="0" width="132.1015625" height="26" rx="5" ry="5" stroke="none"/><text xml:space="preserve" x="5" y="17.45703125" stroke="none" text-anchor="left" font-family="sans-serif" font-size="16" font-weight="normal" fill="#000000">CONTAINS_TAG</text></g></g></g></g><g class="relationship"><g transform="translate(578.9656246815473 1345.5495583487555) rotate(159.84212586604187)" stroke-width="5" stroke="#000000"><path d="M 59 0 L 297.73232111723826 0"/><polygon points="-24.8621506177483,0 -27.62461179749811,9.20820393249937 0,0 -27.62461179749811,-9.20820393249937" fill="#000000" transform="translate(322.5944717349866 0) rotate(0)" stroke="none"/></g><g transform="translate(411.52498997927637 1407.01598075094) rotate(339.8421258660419) translate(0 -13)"><g transform="translate(0 0)"><g transform="translate(-66.05078125 0)" fill="#ffffff" stroke="#000000" stroke-width="0"><rect x="0" y="0" width="132.1015625" height="26" rx="5" ry="5" stroke="none"/><text xml:space="preserve" x="5" y="17.45703125" stroke="none" text-anchor="left" font-family="sans-serif" font-size="16" font-weight="normal" fill="#000000">CONTAINS_TAG</text></g></g></g></g><g class="relationship"><g transform="translate(578.9656246815473 1608.5506445698456) rotate(-159.84212586604187)" stroke-width="5" stroke="#000000"><path d="M 59 0 L 297.73232111723826 0"/><polygon points="-24.8621506177483,0 -27.62461179749811,9.20820393249937 0,0 -27.62461179749811,-9.20820393249937" fill="#000000" transform="translate(322.5944717349866 0) rotate(0)" stroke="none"/></g><g transform="translate(411.52498997927637 1547.0842221676612) rotate(20.157874133958128) translate(0 -13)"><g transform="translate(0 0)"><g transform="translate(-66.05078125 0)" fill="#ffffff" stroke="#000000" stroke-width="0"><rect x="0" y="0" width="132.1015625" height="26" rx="5" ry="5" stroke="none"/><text xml:space="preserve" x="5" y="17.45703125" stroke="none" text-anchor="left" font-family="sans-serif" font-size="16" font-weight="normal" fill="#000000">CONTAINS_TAG</text></g></g></g></g><g class="node"><g fill="#ffffff" stroke="#000000" stroke-width="4"><circle cx="1074.3308029043098" cy="249.48632522104936" r="52"/></g><g transform="translate(1074.3308029043098 249.48632522104936)"><g transform="scale(0.5971896011417263) translate(0 -27)"><g transform="translate(0 0)"><g transform="translate(-70.349609375 0)"><g fill="#ffffff" stroke="#000000" stroke-width="4"><rect x="0" y="0" width="140.69921875" height="54" rx="27" ry="27"/><text xml:space="preserve" x="27" y="38.142578125" stroke="none" font-family="sans-serif" font-size="40" font-weight="normal" fill="#000000">Card</text></g></g></g></g><g transform="translate(3.429011037612589e-15 56)"><g transform="translate(0 0)"><g transform="translate(-65.8046875 0)" fill="white"><rect x="0" y="0" width="131.609375" height="19.2" rx="0" ry="0" stroke="none"/><g font-family="sans-serif" font-size="16" font-weight="normal" fill="#000000" text-anchor="end"><text xml:space="preserve" x="48.9140625" y="14.05703125" stroke="none">name:</text><text xml:space="preserve" x="53.359375" y="14.05703125" stroke="none" text-anchor="start">someCard</text></g></g></g></g></g></g><g class="node"><g fill="#ffffff" stroke="#000000" stroke-width="4"><circle cx="1535.726549499782" cy="456.8710837051776" r="52"/></g><g transform="translate(1535.726549499782 456.8710837051776)"><g transform="scale(0.48262082920763166) translate(0 -27)"><g transform="translate(0 0)"><g transform="translate(-89.24609375 0)"><g fill="#ffffff" stroke="#000000" stroke-width="4"><rect x="0" y="0" width="178.4921875" height="54" rx="27" ry="27"/><text xml:space="preserve" x="27" y="38.142578125" stroke="none" font-family="sans-serif" font-size="40" font-weight="normal" fill="#000000">Project</text></g></g></g></g><g transform="translate(39.59797974644666 39.597979746446654)"><g transform="translate(0 0)"><g transform="translate(0 0)" fill="white"><rect x="0" y="0" width="146.7265625" height="19.2" rx="0" ry="0" stroke="none"/><g font-family="sans-serif" font-size="16" font-weight="normal" fill="#000000" text-anchor="end"><text xml:space="preserve" x="48.9140625" y="14.05703125" stroke="none">name:</text><text xml:space="preserve" x="53.359375" y="14.05703125" stroke="none" text-anchor="start">someProject</text></g></g></g></g></g></g><g class="node"><g fill="#ffffff" stroke="#000000" stroke-width="4"><circle cx="563.2286296680068" cy="454.2745195205207" r="52"/></g><g transform="translate(563.2286296680068 454.2745195205207)"><g transform="scale(0.43303186594673865) translate(0 -27)"><g transform="translate(0 0)"><g transform="translate(-100.349609375 0)"><g fill="#ffffff" stroke="#000000" stroke-width="4"><rect x="0" y="0" width="200.69921875" height="54" rx="27" ry="27"/><text xml:space="preserve" x="27" y="38.142578125" stroke="none" font-family="sans-serif" font-size="40" font-weight="normal" fill="#000000">Member</text></g></g></g></g><g transform="translate(-56 -9.599999999999993)"><g transform="translate(0 0)"><g transform="translate(-155.609375 0)" fill="white"><rect x="0" y="0" width="155.609375" height="19.2" rx="0" ry="0" stroke="none"/><g font-family="sans-serif" font-size="16" font-weight="normal" fill="#000000" text-anchor="end"><text xml:space="preserve" x="48.9140625" y="14.05703125" stroke="none">name:</text><text xml:space="preserve" x="53.359375" y="14.05703125" stroke="none" text-anchor="start">someMember</text></g></g></g></g></g></g><g class="node"><g fill="#ffffff" stroke="#000000" stroke-width="4"><circle cx="1889.7172649452577" cy="249.48632522104936" r="52"/></g><g transform="translate(1889.7172649452577 249.48632522104936)"><g transform="scale(0.45152354656349486) translate(0 -27)"><g transform="translate(0 0)"><g transform="translate(-95.935546875 0)"><g fill="#ffffff" stroke="#000000" stroke-width="4"><rect x="0" y="0" width="191.87109375" height="54" rx="27" ry="27"/><text xml:space="preserve" x="27" y="38.142578125" stroke="none" font-family="sans-serif" font-size="40" font-weight="normal" fill="#000000">License</text></g></g></g></g><g transform="translate(39.59797974644666 -58.79797974644666)"><g transform="translate(0 0)"><g transform="translate(0 0)" fill="white"><rect x="0" y="0" width="152.078125" height="19.2" rx="0" ry="0" stroke="none"/><g font-family="sans-serif" font-size="16" font-weight="normal" fill="#000000" text-anchor="end"><text xml:space="preserve" x="48.9140625" y="14.05703125" stroke="none">name:</text><text xml:space="preserve" x="53.359375" y="14.05703125" stroke="none" text-anchor="start">someLicense</text></g></g></g></g></g></g><g class="node"><g fill="#ffffff" stroke="#000000" stroke-width="4"><circle cx="1889.7172649452577" cy="456.8710837051776" r="52"/></g><g transform="translate(1889.7172649452577 456.8710837051776)"><g transform="scale(0.3778795064025933) translate(0 -27)"><g transform="translate(0 0)"><g transform="translate(-115.984375 0)"><g fill="#ffffff" stroke="#000000" stroke-width="4"><rect x="0" y="0" width="231.96875" height="54" rx="27" ry="27"/><text xml:space="preserve" x="27" y="38.142578125" stroke="none" font-family="sans-serif" font-size="40" font-weight="normal" fill="#000000">Language</text></g></g></g></g><g transform="translate(56 -9.6)"><g transform="translate(0 0)"><g transform="translate(0 0)" fill="white"><rect x="0" y="0" width="168.1171875" height="19.2" rx="0" ry="0" stroke="none"/><g font-family="sans-serif" font-size="16" font-weight="normal" fill="#000000" text-anchor="end"><text xml:space="preserve" x="48.9140625" y="14.05703125" stroke="none">name:</text><text xml:space="preserve" x="53.359375" y="14.05703125" stroke="none" text-anchor="start">someLanguage</text></g></g></g></g></g></g><g class="node"><g fill="#ffffff" stroke="#000000" stroke-width="4"><circle cx="1531.0630722929884" cy="907.1984067746025" r="52"/></g><g transform="translate(1531.0630722929884 907.1984067746025)"><g transform="scale(0.4329532873435424) translate(0 -27)"><g transform="translate(0 0)"><g transform="translate(-100.369140625 0)"><g fill="#ffffff" stroke="#000000" stroke-width="4"><rect x="0" y="0" width="200.73828125" height="54" rx="27" ry="27"/><text xml:space="preserve" x="27" y="38.142578125" stroke="none" font-family="sans-serif" font-size="40" font-weight="normal" fill="#000000">GitRepo</text></g></g></g></g><g transform="translate(3.429011037612589e-15 56)"><g transform="translate(0 0)"><g transform="translate(-77.8125 0)" fill="white"><rect x="0" y="0" width="155.625" height="19.2" rx="0" ry="0" stroke="none"/><g font-family="sans-serif" font-size="16" font-weight="normal" fill="#000000" text-anchor="end"><text xml:space="preserve" x="48.9140625" y="14.05703125" stroke="none">name:</text><text xml:space="preserve" x="53.359375" y="14.05703125" stroke="none" text-anchor="start">someGitRepo</text></g></g></g></g></g></g><g class="node"><g fill="#ffffff" stroke="#000000" stroke-width="4"><circle cx="1889.7172649452577" cy="907.1984067746025" r="52"/></g><g transform="translate(1889.7172649452577 907.1984067746025)"><g transform="scale(0.4997777400152573) translate(0 -27)"><g transform="translate(0 0)"><g transform="translate(-85.896484375 0)"><g fill="#ffffff" stroke="#000000" stroke-width="4"><rect x="0" y="0" width="171.79296875" height="54" rx="27" ry="27"/><text xml:space="preserve" x="27" y="38.142578125" stroke="none" font-family="sans-serif" font-size="40" font-weight="normal" fill="#000000">GitOrg</text></g></g></g></g><g transform="translate(56 -9.6)"><g transform="translate(0 0)"><g transform="translate(0 0)" fill="white"><rect x="0" y="0" width="144.046875" height="19.2" rx="0" ry="0" stroke="none"/><g font-family="sans-serif" font-size="16" font-weight="normal" fill="#000000" text-anchor="end"><text xml:space="preserve" x="48.9140625" y="14.05703125" stroke="none">name:</text><text xml:space="preserve" x="53.359375" y="14.05703125" stroke="none" text-anchor="start">someGitOrg</text></g></g></g></g></g></g><g class="node"><g fill="#ffffff" stroke="#000000" stroke-width="4"><circle cx="1208.251606453278" cy="456.8710837051776" r="52"/></g><g transform="translate(1208.251606453278 456.8710837051776)"><g transform="scale(0.5077036808092975) translate(0 -27)"><g transform="translate(0 0)"><g transform="translate(-84.421875 0)"><g fill="#ffffff" stroke="#000000" stroke-width="4"><rect x="0" y="0" width="168.84375" height="54" rx="27" ry="27"/><text xml:space="preserve" x="27" y="38.142578125" stroke="none" font-family="sans-serif" font-size="40" font-weight="normal" fill="#000000">TAGrp</text></g></g></g></g><g transform="translate(-39.597979746446654 -58.79797974644666)"><g transform="translate(0 0)"><g transform="translate(-142.8671875 0)" fill="white"><rect x="0" y="0" width="142.8671875" height="19.2" rx="0" ry="0" stroke="none"/><g font-family="sans-serif" font-size="16" font-weight="normal" fill="#000000" text-anchor="end"><text xml:space="preserve" x="48.9140625" y="14.05703125" stroke="none">name:</text><text xml:space="preserve" x="53.359375" y="14.05703125" stroke="none" text-anchor="start">someTAGrp</text></g></g></g></g></g></g><g class="node"><g fill="#ffffff" stroke="#000000" stroke-width="4"><circle cx="1074.3308029043098" cy="1117.4805756322912" r="52"/></g><g transform="translate(1074.3308029043098 1117.4805756322912)"><g transform="scale(0.47711749366985773) translate(0 -27)"><g transform="translate(0 0)"><g transform="translate(-90.369140625 0)"><g fill="#ffffff" stroke="#000000" stroke-width="4"><rect x="0" y="0" width="180.73828125" height="54" rx="27" ry="27"/><text xml:space="preserve" x="27" y="38.142578125" stroke="none" font-family="sans-serif" font-size="40" font-weight="normal" fill="#000000">Person</text></g></g></g></g><g transform="translate(-39.597979746446654 -58.79797974644666)"><g transform="translate(0 0)"><g transform="translate(-147.625 0)" fill="white"><rect x="0" y="0" width="147.625" height="19.2" rx="0" ry="0" stroke="none"/><g font-family="sans-serif" font-size="16" font-weight="normal" fill="#000000" text-anchor="end"><text xml:space="preserve" x="48.9140625" y="14.05703125" stroke="none">name:</text><text xml:space="preserve" x="53.359375" y="14.05703125" stroke="none" text-anchor="start">somePerson</text></g></g></g></g></g></g><g class="node"><g fill="#ffffff" stroke="#000000" stroke-width="4"><circle cx="1531.0630722929884" cy="1117.4805756322912" r="52"/></g><g transform="translate(1531.0630722929884 1117.4805756322912)"><g transform="scale(0.4517365872404167) translate(0 -27)"><g transform="translate(0 0)"><g transform="translate(-95.88671875 0)"><g fill="#ffffff" stroke="#000000" stroke-width="4"><rect x="0" y="0" width="191.7734375" height="54" rx="27" ry="27"/><text xml:space="preserve" x="27" y="38.142578125" stroke="none" font-family="sans-serif" font-size="40" font-weight="normal" fill="#000000">Commit</text></g></g></g></g><g transform="translate(3.429011037612589e-15 -75.2)"><g transform="translate(0 0)"><g transform="translate(-76.01953125 0)" fill="white"><rect x="0" y="0" width="152.0390625" height="19.2" rx="0" ry="0" stroke="none"/><g font-family="sans-serif" font-size="16" font-weight="normal" fill="#000000" text-anchor="end"><text xml:space="preserve" x="48.9140625" y="14.05703125" stroke="none">name:</text><text xml:space="preserve" x="53.359375" y="14.05703125" stroke="none" text-anchor="start">someCommit</text></g></g></g></g></g></g><g class="node"><g fill="#ffffff" stroke="#000000" stroke-width="4"><circle cx="1889.7172649452577" cy="1117.4805756322912" r="52"/></g><g transform="translate(1889.7172649452577 1117.4805756322912)"><g transform="scale(0.47711749366985773) translate(0 -27)"><g transform="translate(0 0)"><g transform="translate(-90.369140625 0)"><g fill="#ffffff" stroke="#000000" stroke-width="4"><rect x="0" y="0" width="180.73828125" height="54" rx="27" ry="27"/><text xml:space="preserve" x="27" y="38.142578125" stroke="none" font-family="sans-serif" font-size="40" font-weight="normal" fill="#000000">Branch</text></g></g></g></g><g transform="translate(56 -9.6)"><g transform="translate(0 0)"><g transform="translate(0 0)" fill="white"><rect x="0" y="0" width="147.625" height="19.2" rx="0" ry="0" stroke="none"/><g font-family="sans-serif" font-size="16" font-weight="normal" fill="#000000" text-anchor="end"><text xml:space="preserve" x="48.9140625" y="14.05703125" stroke="none">name:</text><text xml:space="preserve" x="53.359375" y="14.05703125" stroke="none" text-anchor="start">someBranch</text></g></g></g></g></g></g><g class="node"><g fill="#ffffff" stroke="#000000" stroke-width="4"><circle cx="929.1616430034869" cy="456.8710837051776" r="52"/></g><g transform="translate(929.1616430034869 456.8710837051776)"><g transform="scale(0.4882465938151617) translate(0 -27)"><g transform="translate(0 0)"><g transform="translate(-88.123046875 0)"><g fill="#ffffff" stroke="#000000" stroke-width="4"><rect x="0" y="0" width="176.24609375" height="54" rx="27" ry="27"/><text xml:space="preserve" x="27" y="38.142578125" stroke="none" font-family="sans-serif" font-size="40" font-weight="normal" fill="#000000">EUGrp</text></g></g></g></g><g transform="translate(39.59797974644666 -58.79797974644666)"><g transform="translate(0 0)"><g transform="translate(0 0)" fill="white"><rect x="0" y="0" width="145.828125" height="19.2" rx="0" ry="0" stroke="none"/><g font-family="sans-serif" font-size="16" font-weight="normal" fill="#000000" text-anchor="end"><text xml:space="preserve" x="48.9140625" y="14.05703125" stroke="none">name:</text><text xml:space="preserve" x="53.359375" y="14.05703125" stroke="none" text-anchor="start">someEUGrp</text></g></g></g></g></g></g><g class="node"><g fill="#ffffff" stroke="#000000" stroke-width="4"><circle cx="1535.726549499782" cy="1421.7140173345006" r="52"/></g><g transform="translate(1535.726549499782 1421.7140173345006)"><g transform="scale(0.73679469977865) translate(0 -27)"><g transform="translate(0 0)"><g transform="translate(-54.783203125 0)"><g fill="#ffffff" stroke="#000000" stroke-width="4"><rect x="0" y="0" width="109.56640625" height="54" rx="27" ry="27"/><text xml:space="preserve" x="27" y="38.142578125" stroke="none" font-family="sans-serif" font-size="40" font-weight="normal" fill="#000000">PR</text></g></g></g></g><g transform="translate(3.429011037612589e-15 56)"><g transform="translate(0 0)"><g transform="translate(-59.578125 0)" fill="white"><rect x="0" y="0" width="119.15625" height="19.2" rx="0" ry="0" stroke="none"/><g font-family="sans-serif" font-size="16" font-weight="normal" fill="#000000" text-anchor="end"><text xml:space="preserve" x="48.9140625" y="14.05703125" stroke="none">name:</text><text xml:space="preserve" x="53.359375" y="14.05703125" stroke="none" text-anchor="start">somePR</text></g></g></g></g></g></g><g class="node"><g fill="#ffffff" stroke="#000000" stroke-width="4"><circle cx="1074.3308029043098" cy="-4" r="52"/></g><g transform="translate(1074.3308029043098 -4)"><g transform="scale(0.40369007477349117) translate(0 -27)"><g transform="translate(0 0)"><g transform="translate(-108.15234375 0)"><g fill="#ffffff" stroke="#000000" stroke-width="4"><rect x="0" y="0" width="216.3046875" height="54" rx="27" ry="27"/><text xml:space="preserve" x="27" y="38.142578125" stroke="none" font-family="sans-serif" font-size="40" font-weight="normal" fill="#000000">Category</text></g></g></g></g><g transform="translate(3.429011037612589e-15 -75.2)"><g transform="translate(0 0)"><g transform="translate(-80.92578125 0)" fill="white"><rect x="0" y="0" width="161.8515625" height="19.2" rx="0" ry="0" stroke="none"/><g font-family="sans-serif" font-size="16" font-weight="normal" fill="#000000" text-anchor="end"><text xml:space="preserve" x="48.9140625" y="14.05703125" stroke="none">name:</text><text xml:space="preserve" x="53.359375" y="14.05703125" stroke="none" text-anchor="start">someCategory</text></g></g></g></g></g></g><g class="node"><g fill="#ffffff" stroke="#000000" stroke-width="4"><circle cx="563.2286296680072" cy="88.33229403355972" r="52"/></g><g transform="translate(563.2286296680072 88.33229403355972)"><g transform="scale(0.6056074015478576) translate(0 -27)"><g transform="translate(0 0)"><g transform="translate(-69.2265625 0)"><g fill="#ffffff" stroke="#000000" stroke-width="4"><rect x="0" y="0" width="138.453125" height="54" rx="27" ry="27"/><text xml:space="preserve" x="27" y="38.142578125" stroke="none" font-family="sans-serif" font-size="40" font-weight="normal" fill="#000000">MLvl</text></g></g></g></g><g transform="translate(3.429011037612589e-15 -75.2)"><g transform="translate(0 0)"><g transform="translate(-65.35546875 0)" fill="white"><rect x="0" y="0" width="130.7109375" height="19.2" rx="0" ry="0" stroke="none"/><g font-family="sans-serif" font-size="16" font-weight="normal" fill="#000000" text-anchor="end"><text xml:space="preserve" x="48.9140625" y="14.05703125" stroke="none">name:</text><text xml:space="preserve" x="53.359375" y="14.05703125" stroke="none" text-anchor="start">someMLvl</text></g></g></g></g></g></g><g class="node"><g fill="#ffffff" stroke="#000000" stroke-width="4"><circle cx="1535.726549499782" cy="88.33229403355972" r="52"/></g><g transform="translate(1535.726549499782 88.33229403355972)"><g transform="scale(0.6318234762436481) translate(0 -27)"><g transform="translate(0 0)"><g transform="translate(-65.90625 0)"><g fill="#ffffff" stroke="#000000" stroke-width="4"><rect x="0" y="0" width="131.8125" height="54" rx="27" ry="27"/><text xml:space="preserve" x="27" y="38.142578125" stroke="none" font-family="sans-serif" font-size="40" font-weight="normal" fill="#000000">PLvl</text></g></g></g></g><g transform="translate(3.429011037612589e-15 -75.2)"><g transform="translate(0 0)"><g transform="translate(-64.02734375 0)" fill="white"><rect x="0" y="0" width="128.0546875" height="19.2" rx="0" ry="0" stroke="none"/><g font-family="sans-serif" font-size="16" font-weight="normal" fill="#000000" text-anchor="end"><text xml:space="preserve" x="48.9140625" y="14.05703125" stroke="none">name:</text><text xml:space="preserve" x="53.359375" y="14.05703125" stroke="none" text-anchor="start">somePLvl</text></g></g></g></g></g></g><g class="node"><g fill="#ffffff" stroke="#000000" stroke-width="4"><circle cx="571.1573436146734" cy="907.1984067746025" r="52"/></g><g transform="translate(571.1573436146734 907.1984067746025)"><g transform="scale(0.31474903397675363) translate(0 -27)"><g transform="translate(0 0)"><g transform="translate(-140.3984375 0)"><g fill="#ffffff" stroke="#000000" stroke-width="4"><rect x="0" y="0" width="280.796875" height="54" rx="27" ry="27"/><text xml:space="preserve" x="27" y="38.142578125" stroke="none" font-family="sans-serif" font-size="40" font-weight="normal" fill="#000000">Organization</text></g></g></g></g><g transform="translate(3.429011037612589e-15 56)"><g transform="translate(0 0)"><g transform="translate(-93.82421875 0)" fill="white"><rect x="0" y="0" width="187.6484375" height="19.2" rx="0" ry="0" stroke="none"/><g font-family="sans-serif" font-size="16" font-weight="normal" fill="#000000" text-anchor="end"><text xml:space="preserve" x="48.9140625" y="14.05703125" stroke="none">name:</text><text xml:space="preserve" x="53.359375" y="14.05703125" stroke="none" text-anchor="start">someOrganization</text></g></g></g></g></g></g><g class="node"><g fill="#ffffff" stroke="#000000" stroke-width="4"><circle cx="129" cy="808.7108662539263" r="52"/></g><g transform="translate(129 808.7108662539263)"><g transform="scale(0.41994629864833544) translate(0 -27)"><g transform="translate(0 0)"><g transform="translate(-103.69921875 0)"><g fill="#ffffff" stroke="#000000" stroke-width="4"><rect x="0" y="0" width="207.3984375" height="54" rx="27" ry="27"/><text xml:space="preserve" x="27" y="38.142578125" stroke="none" font-family="sans-serif" font-size="40" font-weight="normal" fill="#000000">Industry </text></g></g></g></g><g transform="translate(-56 -9.599999999999993)"><g transform="translate(0 0)"><g transform="translate(-153.84375 0)" fill="white"><rect x="0" y="0" width="153.84375" height="19.2" rx="0" ry="0" stroke="none"/><g font-family="sans-serif" font-size="16" font-weight="normal" fill="#000000" text-anchor="end"><text xml:space="preserve" x="48.9140625" y="14.05703125" stroke="none">name:</text><text xml:space="preserve" x="53.359375" y="14.05703125" stroke="none" text-anchor="start">someIndustry</text></g></g></g></g></g></g><g class="node"><g fill="#ffffff" stroke="#000000" stroke-width="4"><circle cx="358.60493999123537" cy="1259.348530827704" r="52"/></g><g transform="translate(358.60493999123537 1259.348530827704)"><g transform="scale(0.41994629864833544) translate(0 -27)"><g transform="translate(0 0)"><g transform="translate(-103.69921875 0)"><g fill="#ffffff" stroke="#000000" stroke-width="4"><rect x="0" y="0" width="207.3984375" height="54" rx="27" ry="27"/><text xml:space="preserve" x="27" y="38.142578125" stroke="none" font-family="sans-serif" font-size="40" font-weight="normal" fill="#000000">Investor </text></g></g></g></g><g transform="translate(3.429011037612589e-15 56)"><g transform="translate(0 0)"><g transform="translate(-76.921875 0)" fill="white"><rect x="0" y="0" width="153.84375" height="19.2" rx="0" ry="0" stroke="none"/><g font-family="sans-serif" font-size="16" font-weight="normal" fill="#000000" text-anchor="end"><text xml:space="preserve" x="48.9140625" y="14.05703125" stroke="none">name:</text><text xml:space="preserve" x="53.359375" y="14.05703125" stroke="none" text-anchor="start">someInvestor</text></g></g></g></g></g></g><g class="node"><g fill="#ffffff" stroke="#000000" stroke-width="4"><circle cx="155.26166574892477" cy="1086.7358604793535" r="52"/></g><g transform="translate(155.26166574892477 1086.7358604793535)"><g transform="scale(0.4373964191736814) translate(0 -27)"><g transform="translate(0 0)"><g transform="translate(-99.275390625 0)"><g fill="#ffffff" stroke="#000000" stroke-width="4"><rect x="0" y="0" width="198.55078125" height="54" rx="27" ry="27"/><text xml:space="preserve" x="27" y="38.142578125" stroke="none" font-family="sans-serif" font-size="40" font-weight="normal" fill="#000000">Funding</text></g></g></g></g><g transform="translate(-56 -9.599999999999993)"><g transform="translate(0 0)"><g transform="translate(-154.75 0)" fill="white"><rect x="0" y="0" width="154.75" height="19.2" rx="0" ry="0" stroke="none"/><g font-family="sans-serif" font-size="16" font-weight="normal" fill="#000000" text-anchor="end"><text xml:space="preserve" x="48.9140625" y="14.05703125" stroke="none">name:</text><text xml:space="preserve" x="53.359375" y="14.05703125" stroke="none" text-anchor="start">someFunding</text></g></g></g></g></g></g><g class="node"><g fill="#ffffff" stroke="#000000" stroke-width="4"><circle cx="1208.251606453278" cy="738.2985520668335" r="52"/></g><g transform="translate(1208.251606453278 738.2985520668335)"><g transform="scale(0.41162733875169777) translate(0 -27)"><g transform="translate(0 0)"><g transform="translate(-105.935546875 0)"><g fill="#ffffff" stroke="#000000" stroke-width="4"><rect x="0" y="0" width="211.87109375" height="54" rx="27" ry="27"/><text xml:space="preserve" x="27" y="38.142578125" stroke="none" font-family="sans-serif" font-size="40" font-weight="normal" fill="#000000">TagRole </text></g></g></g></g><g transform="translate(56 -9.6)"><g transform="translate(0 0)"><g transform="translate(0 0)" fill="white"><rect x="0" y="0" width="155.6328125" height="19.2" rx="0" ry="0" stroke="none"/><g font-family="sans-serif" font-size="16" font-weight="normal" fill="#000000" text-anchor="end"><text xml:space="preserve" x="48.9140625" y="14.05703125" stroke="none">name:</text><text xml:space="preserve" x="53.359375" y="14.05703125" stroke="none" text-anchor="start">someTagRole</text></g></g></g></g></g></g><g class="node"><g fill="#ffffff" stroke="#000000" stroke-width="4"><circle cx="929.1616430034869" cy="738.2985520668335" r="52"/></g><g transform="translate(929.1616430034869 738.2985520668335)"><g transform="scale(0.46655391497850557) translate(0 -27)"><g transform="translate(0 0)"><g transform="translate(-92.595703125 0)"><g fill="#ffffff" stroke="#000000" stroke-width="4"><rect x="0" y="0" width="185.19140625" height="54" rx="27" ry="27"/><text xml:space="preserve" x="27" y="38.142578125" stroke="none" font-family="sans-serif" font-size="40" font-weight="normal" fill="#000000">EuRole</text></g></g></g></g><g transform="translate(-56 -9.599999999999993)"><g transform="translate(0 0)"><g transform="translate(-149.40625 0)" fill="white"><rect x="0" y="0" width="149.40625" height="19.2" rx="0" ry="0" stroke="none"/><g font-family="sans-serif" font-size="16" font-weight="normal" fill="#000000" text-anchor="end"><text xml:space="preserve" x="48.9140625" y="14.05703125" stroke="none">name:</text><text xml:space="preserve" x="53.359375" y="14.05703125" stroke="none" text-anchor="start">someEuRole</text></g></g></g></g></g></g><g class="node"><g fill="#ffffff" stroke="#000000" stroke-width="4"><circle cx="1404.5488360963673" cy="738.2985520668335" r="52"/></g><g transform="translate(1404.5488360963673 738.2985520668335)"><g transform="scale(0.41994629864833544) translate(0 -27)"><g transform="translate(0 0)"><g transform="translate(-103.69921875 0)"><g fill="#ffffff" stroke="#000000" stroke-width="4"><rect x="0" y="0" width="207.3984375" height="54" rx="27" ry="27"/><text xml:space="preserve" x="27" y="38.142578125" stroke="none" font-family="sans-serif" font-size="40" font-weight="normal" fill="#000000">ProjRole</text></g></g></g></g><g transform="translate(39.59797974644666 39.597979746446654)"><g transform="translate(0 0)"><g transform="translate(0 0)" fill="white"><rect x="0" y="0" width="158.2890625" height="19.2" rx="0" ry="0" stroke="none"/><g font-family="sans-serif" font-size="16" font-weight="normal" fill="#000000" text-anchor="end"><text xml:space="preserve" x="48.9140625" y="14.05703125" stroke="none">name:</text><text xml:space="preserve" x="53.359375" y="14.05703125" stroke="none" text-anchor="start">someProjRole</text></g></g></g></g></g></g><g class="node"><g fill="#ffffff" stroke="#000000" stroke-width="4"><circle cx="1074.3308029043098" cy="1449.3654709156935" r="52"/></g><g transform="translate(1074.3308029043098 1449.3654709156935)"><g transform="scale(0.4374765590941863) translate(0 -27)"><g transform="translate(0 0)"><g transform="translate(-99.255859375 0)"><g fill="#ffffff" stroke="#000000" stroke-width="4"><rect x="0" y="0" width="198.51171875" height="54" rx="27" ry="27"/><text xml:space="preserve" x="27" y="38.142578125" stroke="none" font-family="sans-serif" font-size="40" font-weight="normal" fill="#000000">TocRole</text></g></g></g></g><g transform="translate(56 -9.6)"><g transform="translate(0 0)"><g transform="translate(0 0)" fill="white"><rect x="0" y="0" width="154.734375" height="19.2" rx="0" ry="0" stroke="none"/><g font-family="sans-serif" font-size="16" font-weight="normal" fill="#000000" text-anchor="end"><text xml:space="preserve" x="48.9140625" y="14.05703125" stroke="none">name:</text><text xml:space="preserve" x="53.359375" y="14.05703125" stroke="none" text-anchor="start">someTocRole</text></g></g></g></g></g></g><g class="node"><g fill="#ffffff" stroke="#000000" stroke-width="4"><circle cx="1074.3307921147166" cy="1781.2503661990959" r="52"/></g><g transform="translate(1074.3307921147166 1781.2503661990959)"><g transform="scale(0.5684095180012753) translate(0 -27)"><g transform="translate(0 0)"><g transform="translate(-74.421875 0)"><g fill="#ffffff" stroke="#000000" stroke-width="4"><rect x="0" y="0" width="148.84375" height="54" rx="27" ry="27"/><text xml:space="preserve" x="27" y="38.142578125" stroke="none" font-family="sans-serif" font-size="40" font-weight="normal" fill="#000000">TOC </text></g></g></g></g><g transform="translate(3.429011037612589e-15 56)"><g transform="translate(0 0)"><g transform="translate(-139.609375 0)" fill="white"><rect x="0" y="0" width="279.21875" height="19.2" rx="0" ry="0" stroke="none"/><g font-family="sans-serif" font-size="16" font-weight="normal" fill="#000000" text-anchor="end"><text xml:space="preserve" x="48.9140625" y="14.05703125" stroke="none">name:</text><text xml:space="preserve" x="53.359375" y="14.05703125" stroke="none" text-anchor="start">Technical Oversight Committee</text></g></g></g></g></g></g><g class="node"><g fill="#ffffff" stroke="#000000" stroke-width="4"><circle cx="265.40197848916296" cy="606.7486339297266" r="52"/></g><g transform="translate(265.40197848916296 606.7486339297266)"><g transform="scale(0.6705011310795467) translate(0 -27)"><g transform="translate(0 0)"><g transform="translate(-61.443359375 0)"><g fill="#ffffff" stroke="#000000" stroke-width="4"><rect x="0" y="0" width="122.88671875" height="54" rx="27" ry="27"/><text xml:space="preserve" x="27" y="38.142578125" stroke="none" font-family="sans-serif" font-size="40" font-weight="normal" fill="#000000">City</text></g></g></g></g><g transform="translate(-39.597979746446654 -58.79797974644666)"><g transform="translate(0 0)"><g transform="translate(-124.484375 0)" fill="white"><rect x="0" y="0" width="124.484375" height="19.2" rx="0" ry="0" stroke="none"/><g font-family="sans-serif" font-size="16" font-weight="normal" fill="#000000" text-anchor="end"><text xml:space="preserve" x="48.9140625" y="14.05703125" stroke="none">name:</text><text xml:space="preserve" x="53.359375" y="14.05703125" stroke="none" text-anchor="start">someCity</text></g></g></g></g></g></g><g class="node"><g fill="#ffffff" stroke="#000000" stroke-width="4"><circle cx="578.9656246815473" cy="1477.0501014593005" r="52"/></g><g transform="translate(578.9656246815473 1477.0501014593005)"><g transform="scale(0.5307652424320458) translate(0 -27)"><g transform="translate(0 0)"><g transform="translate(-80.369140625 0)"><g fill="#ffffff" stroke="#000000" stroke-width="4"><rect x="0" y="0" width="160.73828125" height="54" rx="27" ry="27"/><text xml:space="preserve" x="27" y="38.142578125" stroke="none" font-family="sans-serif" font-size="40" font-weight="normal" fill="#000000">Tweet</text></g></g></g></g><g transform="translate(3.429011037612589e-15 56)"><g transform="translate(0 0)"><g transform="translate(-69.8125 0)" fill="white"><rect x="0" y="0" width="139.625" height="19.2" rx="0" ry="0" stroke="none"/><g font-family="sans-serif" font-size="16" font-weight="normal" fill="#000000" text-anchor="end"><text xml:space="preserve" x="48.9140625" y="14.05703125" stroke="none">name:</text><text xml:space="preserve" x="53.359375" y="14.05703125" stroke="none" text-anchor="start">someTweet</text></g></g></g></g></g></g><g class="node"><g fill="#ffffff" stroke="#000000" stroke-width="4"><circle cx="578.9656246815473" cy="1345.5495583487555" r="52"/></g><g transform="translate(578.9656246815473 1345.5495583487555)"><g transform="scale(0.6227261891114418) translate(0 -27)"><g transform="translate(0 0)"><g transform="translate(-67.029296875 0)"><g fill="#ffffff" stroke="#000000" stroke-width="4"><rect x="0" y="0" width="134.05859375" height="54" rx="27" ry="27"/><text xml:space="preserve" x="27" y="38.142578125" stroke="none" font-family="sans-serif" font-size="40" font-weight="normal" fill="#000000">Blog</text></g></g></g></g><g transform="translate(3.429011037612589e-15 56)"><g transform="translate(0 0)"><g transform="translate(-64.4765625 0)" fill="white"><rect x="0" y="0" width="128.953125" height="19.2" rx="0" ry="0" stroke="none"/><g font-family="sans-serif" font-size="16" font-weight="normal" fill="#000000" text-anchor="end"><text xml:space="preserve" x="48.9140625" y="14.05703125" stroke="none">name:</text><text xml:space="preserve" x="53.359375" y="14.05703125" stroke="none" text-anchor="start">someBlog</text></g></g></g></g></g></g><g class="node"><g fill="#ffffff" stroke="#000000" stroke-width="4"><circle cx="578.9656246815473" cy="1608.5506445698456" r="52"/></g><g transform="translate(578.9656246815473 1608.5506445698456)"><g transform="scale(0.48257245199145743) translate(0 -27)"><g transform="translate(0 0)"><g transform="translate(-89.255859375 0)"><g fill="#ffffff" stroke="#000000" stroke-width="4"><rect x="0" y="0" width="178.51171875" height="54" rx="27" ry="27"/><text xml:space="preserve" x="27" y="38.142578125" stroke="none" font-family="sans-serif" font-size="40" font-weight="normal" fill="#000000">LIPost </text></g></g></g></g><g transform="translate(3.429011037612589e-15 56)"><g transform="translate(0 0)"><g transform="translate(-71.14453125 0)" fill="white"><rect x="0" y="0" width="142.2890625" height="19.2" rx="0" ry="0" stroke="none"/><g font-family="sans-serif" font-size="16" font-weight="normal" fill="#000000" text-anchor="end"><text xml:space="preserve" x="48.9140625" y="14.05703125" stroke="none">name:</text><text xml:space="preserve" x="53.359375" y="14.05703125" stroke="none" text-anchor="start">someLIPost</text></g></g></g></g></g></g><g class="node"><g fill="#ffffff" stroke="#000000" stroke-width="4"><circle cx="220.74509481155906" cy="1477.0501014593005" r="52"/></g><g transform="translate(220.74509481155906 1477.0501014593005)"><g transform="scale(0.4284808038058417) translate(0 -27)"><g transform="translate(0 0)"><g transform="translate(-101.4921875 0)"><g fill="#ffffff" stroke="#000000" stroke-width="4"><rect x="0" y="0" width="202.984375" height="54" rx="27" ry="27"/><text xml:space="preserve" x="27" y="38.142578125" stroke="none" font-family="sans-serif" font-size="40" font-weight="normal" fill="#000000">Hashtag</text></g></g></g></g><g transform="translate(-56 -9.599999999999993)"><g transform="translate(0 0)"><g transform="translate(-156.5234375 0)" fill="white"><rect x="0" y="0" width="156.5234375" height="19.2" rx="0" ry="0" stroke="none"/><g font-family="sans-serif" font-size="16" font-weight="normal" fill="#000000" text-anchor="end"><text xml:space="preserve" x="48.9140625" y="14.05703125" stroke="none">name:</text><text xml:space="preserve" x="53.359375" y="14.05703125" stroke="none" text-anchor="start">someHashtag</text></g></g></g></g></g></g></g></svg>