<svg width="767" height="355" viewBox="0 0 767 355" fill="none" xmlns="http://www.w3.org/2000/svg">
<rect width="767" height="355" fill="white"/>
<path d="M18.6425 155H3V243H227V155H211.245" stroke="#018BFF" stroke-dasharray="3 4"/>
<path d="M39 155H75" stroke="#018BFF" stroke-linecap="round" stroke-linejoin="round"/>
<path d="M142 155H179" stroke="#018BFF" stroke-linecap="round" stroke-linejoin="round"/>
<path d="M76.0227 132.98H141.872V175.925H76.0227V132.98Z" stroke="#002B66" stroke-width="2" stroke-miterlimit="23.3333" stroke-linecap="round" stroke-linejoin="round"/>
<path d="M93.2008 184.514H124.694" stroke="#002B66" stroke-width="2" stroke-miterlimit="23.3333" stroke-linecap="round" stroke-linejoin="round"/>
<path d="M104.653 175.925V184.514" stroke="#002B66" stroke-width="2" stroke-miterlimit="23.3333" stroke-linecap="round" stroke-linejoin="round"/>
<path d="M113.242 175.925V184.514" stroke="#002B66" stroke-width="2" stroke-miterlimit="23.3333" stroke-linecap="round" stroke-linejoin="round"/>
<path d="M179.063 136.788H211.525V180.706H179.063V136.788Z" stroke="#002B66" stroke-width="2" stroke-miterlimit="23.3333" stroke-linecap="round" stroke-linejoin="round"/>
<path d="M211.524 173.068H179.062" stroke="#002B66" stroke-width="2" stroke-miterlimit="23.3333" stroke-linecap="round" stroke-linejoin="round"/>
<path d="M211.524 144.426H179.062" stroke="#002B66" stroke-width="2" stroke-miterlimit="23.3333" stroke-linecap="round" stroke-linejoin="round"/>
<path d="M195.293 139.498C195.847 139.498 196.401 140.052 196.401 140.606C196.401 141.159 195.847 141.713 195.293 141.713C194.739 141.713 194.186 141.159 194.186 140.606C194.186 140.052 194.739 139.498 195.293 139.498Z" fill="#002B66"/>
<path d="M195.293 175.781C195.847 175.781 196.401 176.335 196.401 176.889C196.401 177.442 195.847 177.996 195.293 177.996C194.739 177.996 194.186 177.442 194.186 176.889C194.186 176.335 194.739 175.781 195.293 175.781Z" fill="#002B66"/>
<path d="M38.8321 170.578H18.3257" stroke="#002B66" stroke-width="2" stroke-miterlimit="23.3333" stroke-linecap="round" stroke-linejoin="round"/>
<path d="M28.5597 172.808C28.9878 172.808 29.416 173.237 29.416 173.665C29.416 174.093 28.9878 174.521 28.5597 174.521C28.1315 174.521 27.7034 174.093 27.7034 173.665C27.7034 173.237 28.1315 172.808 28.5597 172.808Z" fill="#002B66"/>
<path d="M18.3257 140.607H38.8321V176.887H18.3257V140.607Z" stroke="#002B66" stroke-width="2" stroke-miterlimit="23.3333" stroke-linecap="round" stroke-linejoin="round"/>
<rect x="62.8148" y="220.297" width="104.219" height="45.089" rx="4" fill="white" stroke="#018BFF"/>
<path d="M92.5828 238.319C91.4428 238.319 90.7348 237.695 90.7348 236.531V233.999C90.7348 232.751 91.4428 232.163 92.6068 232.163C93.7228 232.163 94.4188 232.655 94.4188 233.603V233.711H95.8468V233.603C95.8468 231.755 94.5508 230.927 92.6068 230.927C90.5788 230.927 89.3068 231.935 89.3068 233.999V236.531C89.3068 238.535 90.4708 239.567 92.2948 239.567C93.2908 239.567 94.0828 239.279 94.5988 238.715L94.7908 239.447H95.8468V234.983H92.2108V236.231H94.4188V236.651C94.4188 237.731 93.7228 238.319 92.5828 238.319ZM98.177 239.447H99.509V235.451C99.509 234.659 100.325 234.203 101.753 234.419V233.219C100.829 233.015 99.941 233.315 99.401 233.987L99.197 233.267H98.177V239.447ZM103.075 237.659C103.075 238.943 103.939 239.567 105.283 239.567C106.099 239.567 106.747 239.315 107.131 238.835L107.311 239.447H108.331V235.391C108.331 233.903 107.359 233.147 105.847 233.147C104.251 233.147 103.375 233.831 103.375 235.175H104.707C104.707 234.515 105.067 234.239 105.847 234.239C106.555 234.239 106.999 234.623 106.999 235.319V236.303C106.603 235.943 106.015 235.763 105.295 235.763C103.939 235.763 103.075 236.387 103.075 237.659ZM104.407 237.623C104.407 237.059 104.899 236.819 105.679 236.819C106.471 236.819 106.999 237.095 106.999 237.623C106.999 238.151 106.471 238.415 105.679 238.415C104.899 238.415 104.407 238.175 104.407 237.623ZM115.941 235.535C115.941 233.975 115.065 233.147 113.685 233.147C112.905 233.147 112.281 233.411 111.885 233.903L111.705 233.267H110.685V241.847H112.017V238.991C112.413 239.375 112.977 239.567 113.673 239.567C115.065 239.567 115.941 238.739 115.941 237.179V235.535ZM114.609 237.263C114.609 238.019 114.117 238.415 113.325 238.415C112.545 238.415 112.017 238.007 112.017 237.239V235.475C112.017 234.707 112.545 234.299 113.337 234.299C114.117 234.299 114.609 234.695 114.609 235.451V237.263ZM123.426 239.447V235.511C123.426 233.927 122.538 233.147 121.17 233.147C120.474 233.147 119.898 233.351 119.502 233.747V230.567H118.17V239.447H119.502V235.451C119.502 234.671 120.042 234.299 120.822 234.299C121.602 234.299 122.094 234.647 122.094 235.415V239.447H123.426ZM131.243 241.847L132.251 240.839L130.607 239.267C131.651 238.823 132.263 237.899 132.263 236.531V233.951C132.263 231.983 130.979 230.927 128.975 230.927C126.947 230.927 125.663 231.983 125.663 233.951V236.531C125.663 238.511 126.947 239.567 128.951 239.567H128.975L131.243 241.847ZM130.835 236.531C130.835 237.695 130.115 238.319 128.951 238.319C127.811 238.319 127.091 237.695 127.091 236.531V233.951C127.091 232.799 127.811 232.163 128.975 232.163C130.115 232.163 130.835 232.799 130.835 233.951V236.531ZM134.486 239.447H140.126V238.199H135.914V231.047H134.486V239.447ZM102.753 250.591V250.651C102.753 251.731 102.057 252.319 100.917 252.319C99.7769 252.319 99.0689 251.695 99.0689 250.531V247.951C99.0689 246.799 99.7769 246.163 100.941 246.163C102.057 246.163 102.753 246.763 102.753 247.843V247.891H104.181V247.843C104.181 245.947 102.921 244.927 100.941 244.927C98.9129 244.927 97.6409 245.983 97.6409 247.951V250.531C97.6409 252.511 98.9129 253.567 100.917 253.567C102.921 253.567 104.181 252.547 104.181 250.651V250.591H102.753ZM106.37 253.447H107.702V244.567H106.37V253.447ZM110.105 253.447H111.437V247.267H110.105V253.447ZM110.105 246.211H111.437V244.675H110.105V246.211ZM117.584 251.479C117.512 252.019 117.152 252.415 116.312 252.415C115.472 252.415 115.016 251.971 115.016 251.251V250.771H118.928V249.535C118.928 247.951 117.896 247.147 116.312 247.147C114.716 247.147 113.672 247.951 113.672 249.535V251.167C113.672 252.739 114.716 253.567 116.312 253.567C117.836 253.567 118.808 252.847 118.928 251.479H117.584ZM115.016 249.451C115.016 248.671 115.532 248.299 116.312 248.299C117.092 248.299 117.596 248.671 117.596 249.451V249.751H115.016V249.451ZM121.172 253.447H122.504V249.451C122.504 248.671 123.044 248.299 123.824 248.299C124.604 248.299 125.096 248.647 125.096 249.415V253.447H126.428V249.511C126.428 247.927 125.54 247.147 124.172 247.147C123.404 247.147 122.78 247.399 122.372 247.891L122.192 247.267H121.172V253.447ZM130.657 248.419H132.385V247.267H130.657V245.011L129.325 245.407V247.267H128.245V248.419H129.325V251.203C129.325 252.919 129.853 253.855 132.385 253.447V252.343C131.005 252.487 130.657 252.295 130.657 251.275V248.419Z" fill="#002B66"/>
<rect x="627.817" y="220.297" width="123.75" height="45.089" rx="4" fill="white" stroke="#018BFF"/>
<path d="M428.585 206H432.815V205.064H429.656V199.7H428.585V206ZM434.207 206H435.206V201.365H434.207V206ZM434.207 200.573H435.206V199.421H434.207V200.573ZM440.95 203.066C440.95 201.896 440.293 201.275 439.258 201.275C438.736 201.275 438.304 201.446 438.007 201.752V199.34H437.008V206H437.773L437.908 205.523C438.214 205.901 438.664 206.09 439.249 206.09C440.293 206.09 440.95 205.469 440.95 204.299V203.066ZM439.951 204.362C439.951 204.929 439.582 205.226 438.988 205.226C438.403 205.226 438.007 204.92 438.007 204.344V203.021C438.007 202.445 438.403 202.139 438.997 202.139C439.582 202.139 439.951 202.436 439.951 203.003V204.362ZM442.621 206H443.62V203.003C443.62 202.409 444.232 202.067 445.303 202.229V201.329C444.61 201.176 443.944 201.401 443.539 201.905L443.386 201.365H442.621V206ZM446.295 204.659C446.295 205.622 446.943 206.09 447.951 206.09C448.563 206.09 449.049 205.901 449.337 205.541L449.472 206H450.237V202.958C450.237 201.842 449.508 201.275 448.374 201.275C447.177 201.275 446.52 201.788 446.52 202.796H447.519C447.519 202.301 447.789 202.094 448.374 202.094C448.905 202.094 449.238 202.382 449.238 202.904V203.642C448.941 203.372 448.5 203.237 447.96 203.237C446.943 203.237 446.295 203.705 446.295 204.659ZM447.294 204.632C447.294 204.209 447.663 204.029 448.248 204.029C448.842 204.029 449.238 204.236 449.238 204.632C449.238 205.028 448.842 205.226 448.248 205.226C447.663 205.226 447.294 205.046 447.294 204.632ZM452.003 206H453.002V203.003C453.002 202.409 453.614 202.067 454.685 202.229V201.329C453.992 201.176 453.326 201.401 452.921 201.905L452.768 201.365H452.003V206ZM457.674 207.8L460.023 201.365H459.015L457.773 204.884L456.522 201.365H455.451L457.143 206H457.26L456.603 207.8H457.674Z" fill="#002B66"/>
<circle cx="430" cy="159" r="67.5" stroke="#018BFF" stroke-dasharray="3 4"/>
<path d="M430.112 227.234V243.42" stroke="#018BFF" stroke-dasharray="3 4"/>
<rect x="368.92" y="220.297" width="123.748" height="45.089" rx="4" fill="white" stroke="#018BFF"/>
<path d="M407.77 240.395C406.63 240.395 405.922 239.771 405.922 238.607V236.075C405.922 234.827 406.63 234.239 407.794 234.239C408.91 234.239 409.606 234.731 409.606 235.679V235.787H411.034V235.679C411.034 233.831 409.738 233.003 407.794 233.003C405.766 233.003 404.494 234.011 404.494 236.075V238.607C404.494 240.611 405.658 241.643 407.482 241.643C408.478 241.643 409.27 241.355 409.786 240.791L409.978 241.523H411.034V237.059H407.398V238.307H409.606V238.727C409.606 239.807 408.91 240.395 407.77 240.395ZM413.364 241.523H414.696V237.527C414.696 236.735 415.512 236.279 416.94 236.495V235.295C416.016 235.091 415.128 235.391 414.588 236.063L414.384 235.343H413.364V241.523ZM418.262 239.735C418.262 241.019 419.126 241.643 420.47 241.643C421.286 241.643 421.934 241.391 422.318 240.911L422.498 241.523H423.518V237.467C423.518 235.979 422.546 235.223 421.034 235.223C419.438 235.223 418.562 235.907 418.562 237.251H419.894C419.894 236.591 420.254 236.315 421.034 236.315C421.742 236.315 422.186 236.699 422.186 237.395V238.379C421.79 238.019 421.202 237.839 420.482 237.839C419.126 237.839 418.262 238.463 418.262 239.735ZM419.594 239.699C419.594 239.135 420.086 238.895 420.866 238.895C421.658 238.895 422.186 239.171 422.186 239.699C422.186 240.227 421.658 240.491 420.866 240.491C420.086 240.491 419.594 240.251 419.594 239.699ZM431.128 237.611C431.128 236.051 430.252 235.223 428.872 235.223C428.092 235.223 427.468 235.487 427.072 235.979L426.892 235.343H425.872V243.923H427.204V241.067C427.6 241.451 428.164 241.643 428.86 241.643C430.252 241.643 431.128 240.815 431.128 239.255V237.611ZM429.796 239.339C429.796 240.095 429.304 240.491 428.512 240.491C427.732 240.491 427.204 240.083 427.204 239.315V237.551C427.204 236.783 427.732 236.375 428.524 236.375C429.304 236.375 429.796 236.771 429.796 237.527V239.339ZM438.613 241.523V237.587C438.613 236.003 437.725 235.223 436.357 235.223C435.661 235.223 435.085 235.427 434.689 235.823V232.643H433.357V241.523H434.689V237.527C434.689 236.747 435.229 236.375 436.009 236.375C436.789 236.375 437.281 236.723 437.281 237.491V241.523H438.613ZM446.43 243.923L447.438 242.915L445.794 241.343C446.838 240.899 447.45 239.975 447.45 238.607V236.027C447.45 234.059 446.166 233.003 444.162 233.003C442.134 233.003 440.85 234.059 440.85 236.027V238.607C440.85 240.587 442.134 241.643 444.138 241.643H444.162L446.43 243.923ZM446.022 238.607C446.022 239.771 445.302 240.395 444.138 240.395C442.998 240.395 442.278 239.771 442.278 238.607V236.027C442.278 234.875 442.998 234.239 444.162 234.239C445.302 234.239 446.022 234.875 446.022 236.027V238.607ZM449.673 241.523H455.313V240.275H451.101V233.123H449.673V241.523ZM425.069 247.123H423.329L420.401 255.523H421.817L422.477 253.555H425.789L426.449 255.523H427.997L425.069 247.123ZM424.133 248.635L425.405 252.319H422.861L424.133 248.635ZM429.614 255.523H431.042V252.535H432.926C434.618 252.535 435.698 251.719 435.698 249.823C435.698 247.927 434.606 247.123 432.926 247.123H429.614V255.523ZM431.042 248.359H432.878C433.694 248.359 434.234 248.755 434.234 249.823C434.234 250.891 433.706 251.299 432.878 251.299H431.042V248.359ZM437.615 255.523H439.043V247.123H437.615V255.523Z" fill="#002B66"/>
<g clip-path="url(#clip0)">
<path d="M447.141 127.499C446.833 127.33 446.504 127.211 446.164 127.131V117.869C446.504 117.789 446.833 117.67 447.151 117.501C448.924 116.534 449.529 114.413 448.51 112.75C447.48 111.087 445.219 110.519 443.446 111.475C443.127 111.645 442.851 111.864 442.607 112.103L434.06 107.472C434.156 107.153 434.209 106.824 434.209 106.476C434.209 104.554 432.553 103 430.504 103C428.455 103 426.799 104.554 426.799 106.476C426.799 106.814 426.852 107.153 426.947 107.462L418.39 112.093C418.146 111.854 417.87 111.645 417.551 111.475C415.778 110.519 413.506 111.087 412.487 112.75C411.468 114.413 412.073 116.544 413.846 117.501C414.164 117.67 414.493 117.789 414.833 117.869V127.131C414.493 127.211 414.175 127.33 413.856 127.499C412.083 128.466 411.478 130.587 412.497 132.25C413.517 133.913 415.778 134.481 417.562 133.525C417.88 133.355 418.156 133.146 418.39 132.907L426.937 137.538C426.841 137.847 426.788 138.176 426.788 138.524C426.788 140.446 428.444 142 430.493 142C432.542 142 434.199 140.436 434.199 138.524C434.199 138.146 434.135 137.777 434.007 137.429L442.501 132.828C442.756 133.097 443.064 133.336 443.414 133.525C445.187 134.481 447.459 133.913 448.478 132.25C449.529 130.587 448.924 128.466 447.141 127.499ZM419.314 129.691C419.229 129.372 419.101 129.073 418.921 128.774C418.74 128.485 418.517 128.227 418.273 127.997L429.463 109.812C429.792 109.902 430.132 109.951 430.493 109.951C430.854 109.951 431.205 109.902 431.523 109.812L442.724 127.997C442.469 128.217 442.257 128.485 442.076 128.774C441.896 129.063 441.768 129.372 441.683 129.691H419.314ZM441.726 113.537C441.46 114.413 441.556 115.379 442.076 116.226C442.596 117.072 443.446 117.64 444.391 117.859V127.141C444.338 127.151 444.295 127.161 444.253 127.181L433.062 108.985C433.094 108.956 433.126 108.926 433.158 108.896L441.726 113.537ZM427.839 108.896C427.871 108.926 427.913 108.966 427.945 108.995L416.744 127.171C416.691 127.161 416.649 127.141 416.596 127.131V117.849C417.541 117.63 418.39 117.062 418.91 116.216C419.43 115.369 419.526 114.393 419.26 113.527L427.839 108.896ZM433.243 136.184C432.563 135.487 431.587 135.049 430.504 135.049C429.453 135.049 428.508 135.457 427.839 136.114L419.282 131.483C419.292 131.443 419.303 131.394 419.324 131.354H441.694C441.715 131.433 441.737 131.503 441.758 131.583L433.243 136.184Z" fill="#E10098"/>
</g>
<path d="M498 161L495 157H501L498 161Z" fill="#018BFF" stroke="#018BFF" stroke-linecap="round" stroke-linejoin="round"/>
<path d="M362.5 157L366 161L359 161L362.5 157Z" fill="#018BFF" stroke="#018BFF" stroke-linecap="round" stroke-linejoin="round"/>
<path d="M431.921 173.114C424.883 173.114 420.169 177.231 420.169 185.132V190.776C420.833 190.444 421.63 190.245 422.426 190.245C423.223 190.245 424.02 190.444 424.75 190.776V185.132C424.75 179.953 427.606 177.364 431.921 177.364C436.237 177.364 439.092 180.019 439.092 185.132V197.482H443.674V185.132C443.674 177.164 438.96 173.114 431.921 173.114Z" fill="black"/>
<path d="M422.294 191.706C421.43 191.706 420.567 191.971 419.97 192.502L415.654 189.581C415.72 189.249 415.787 188.917 415.787 188.518C415.787 186.394 414.06 184.601 411.869 184.601C409.744 184.601 407.952 186.327 407.952 188.518C407.952 190.643 409.678 192.436 411.869 192.436C412.732 192.436 413.595 192.17 414.193 191.639L418.509 194.561C418.443 194.893 418.376 195.225 418.376 195.623C418.376 196.021 418.443 196.353 418.509 196.685L414.193 199.607C413.529 199.142 412.732 198.81 411.869 198.81C409.744 198.81 407.952 200.537 407.952 202.728C407.952 204.919 409.678 206.645 411.869 206.645C413.994 206.645 415.787 204.919 415.787 202.728C415.787 202.329 415.72 201.997 415.654 201.665L419.97 198.744C420.634 199.209 421.43 199.541 422.294 199.541C424.418 199.541 426.211 197.814 426.211 195.623C426.211 193.432 424.418 191.706 422.294 191.706Z" fill="#018BFF"/>
<path d="M429.737 157.015H427.112V158.455H429.737V161.185H431.252V158.455H433.892V157.015H431.252V154.27H429.737V157.015Z" fill="black"/>
<path d="M241.238 158.767C240.847 159.157 240.847 159.791 241.238 160.181L247.602 166.545C247.992 166.936 248.625 166.936 249.016 166.545C249.406 166.155 249.406 165.521 249.016 165.131L243.359 159.474L249.016 153.817C249.406 153.427 249.406 152.793 249.016 152.403C248.625 152.012 247.992 152.012 247.602 152.403L241.238 158.767ZM345.326 160.181C345.717 159.791 345.717 159.157 345.326 158.767L338.962 152.403C338.572 152.012 337.938 152.012 337.548 152.403C337.157 152.793 337.157 153.427 337.548 153.817L343.205 159.474L337.548 165.131C337.157 165.521 337.157 166.155 337.548 166.545C337.938 166.936 338.572 166.936 338.962 166.545L345.326 160.181ZM241.945 160.474L344.619 160.474L344.619 158.474L241.945 158.474L241.945 160.474Z" fill="#002B66"/>
<rect x="257.469" y="153.127" width="71.6265" height="12.6939" fill="white"/>
<path d="M271.36 162.999C270.22 162.999 269.512 162.375 269.512 161.211V158.679C269.512 157.431 270.22 156.843 271.384 156.843C272.5 156.843 273.196 157.335 273.196 158.283V158.391H274.624V158.283C274.624 156.435 273.328 155.607 271.384 155.607C269.356 155.607 268.084 156.615 268.084 158.679V161.211C268.084 163.215 269.248 164.247 271.072 164.247C272.068 164.247 272.86 163.959 273.376 163.395L273.568 164.127H274.624V159.663H270.988V160.911H273.196V161.331C273.196 162.411 272.5 162.999 271.36 162.999ZM276.954 164.127H278.286V160.131C278.286 159.339 279.102 158.883 280.53 159.099V157.899C279.606 157.695 278.718 157.995 278.178 158.667L277.974 157.947H276.954V164.127ZM281.852 162.339C281.852 163.623 282.716 164.247 284.06 164.247C284.876 164.247 285.524 163.995 285.908 163.515L286.088 164.127H287.108V160.071C287.108 158.583 286.136 157.827 284.624 157.827C283.028 157.827 282.152 158.511 282.152 159.855H283.484C283.484 159.195 283.844 158.919 284.624 158.919C285.332 158.919 285.776 159.303 285.776 159.999V160.983C285.38 160.623 284.792 160.443 284.072 160.443C282.716 160.443 281.852 161.067 281.852 162.339ZM283.184 162.303C283.184 161.739 283.676 161.499 284.456 161.499C285.248 161.499 285.776 161.775 285.776 162.303C285.776 162.831 285.248 163.095 284.456 163.095C283.676 163.095 283.184 162.855 283.184 162.303ZM294.718 160.215C294.718 158.655 293.842 157.827 292.462 157.827C291.682 157.827 291.058 158.091 290.662 158.583L290.482 157.947H289.462V166.527H290.794V163.671C291.19 164.055 291.754 164.247 292.45 164.247C293.842 164.247 294.718 163.419 294.718 161.859V160.215ZM293.386 161.943C293.386 162.699 292.894 163.095 292.102 163.095C291.322 163.095 290.794 162.687 290.794 161.919V160.155C290.794 159.387 291.322 158.979 292.114 158.979C292.894 158.979 293.386 159.375 293.386 160.131V161.943ZM302.203 164.127V160.191C302.203 158.607 301.315 157.827 299.947 157.827C299.251 157.827 298.675 158.031 298.279 158.427V155.247H296.947V164.127H298.279V160.131C298.279 159.351 298.819 158.979 299.599 158.979C300.379 158.979 300.871 159.327 300.871 160.095V164.127H302.203ZM310.02 166.527L311.028 165.519L309.384 163.947C310.428 163.503 311.04 162.579 311.04 161.211V158.631C311.04 156.663 309.756 155.607 307.752 155.607C305.724 155.607 304.44 156.663 304.44 158.631V161.211C304.44 163.191 305.724 164.247 307.728 164.247H307.752L310.02 166.527ZM309.612 161.211C309.612 162.375 308.892 162.999 307.728 162.999C306.588 162.999 305.868 162.375 305.868 161.211V158.631C305.868 157.479 306.588 156.843 307.752 156.843C308.892 156.843 309.612 157.479 309.612 158.631V161.211ZM313.263 164.127H318.903V162.879H314.691V155.727H313.263V164.127Z" fill="#002B66"/>
<path d="M514.898 158.767C514.507 159.157 514.507 159.791 514.898 160.181L521.262 166.545C521.652 166.936 522.285 166.936 522.676 166.545C523.066 166.155 523.066 165.521 522.676 165.131L517.019 159.474L522.676 153.817C523.066 153.427 523.066 152.793 522.676 152.403C522.285 152.012 521.652 152.012 521.262 152.403L514.898 158.767ZM618.986 160.181C619.377 159.791 619.377 159.157 618.986 158.767L612.622 152.403C612.232 152.012 611.599 152.012 611.208 152.403C610.818 152.793 610.818 153.427 611.208 153.817L616.865 159.474L611.208 165.131C610.818 165.521 610.818 166.155 611.208 166.545C611.599 166.936 612.232 166.936 612.622 166.545L618.986 160.181ZM515.605 160.474L618.279 160.474L618.279 158.474L515.605 158.474L515.605 160.474Z" fill="#002B66"/>
<rect x="531.129" y="153.127" width="71.6265" height="12.6939" fill="white"/>
<path d="M552.049 161.271V161.331C552.049 162.411 551.353 162.999 550.213 162.999C549.073 162.999 548.365 162.375 548.365 161.211V158.631C548.365 157.479 549.073 156.843 550.237 156.843C551.353 156.843 552.049 157.443 552.049 158.523V158.571H553.477V158.523C553.477 156.627 552.217 155.607 550.237 155.607C548.209 155.607 546.937 156.663 546.937 158.631V161.211C546.937 163.191 548.209 164.247 550.213 164.247C552.217 164.247 553.477 163.227 553.477 161.331V161.271H552.049ZM557.736 166.527L560.868 157.947H559.524L557.868 162.639L556.2 157.947H554.772L557.028 164.127H557.184L556.308 166.527H557.736ZM567.868 160.215C567.868 158.655 566.992 157.827 565.612 157.827C564.832 157.827 564.208 158.091 563.812 158.583L563.632 157.947H562.612V166.527H563.944V163.671C564.34 164.055 564.904 164.247 565.6 164.247C566.992 164.247 567.868 163.419 567.868 161.859V160.215ZM566.536 161.943C566.536 162.699 566.044 163.095 565.252 163.095C564.472 163.095 563.944 162.687 563.944 161.919V160.155C563.944 159.387 564.472 158.979 565.264 158.979C566.044 158.979 566.536 159.375 566.536 160.131V161.943ZM575.353 164.127V160.191C575.353 158.607 574.465 157.827 573.097 157.827C572.401 157.827 571.825 158.031 571.429 158.427V155.247H570.097V164.127H571.429V160.131C571.429 159.351 571.969 158.979 572.749 158.979C573.529 158.979 574.021 159.327 574.021 160.095V164.127H575.353ZM581.454 162.159C581.382 162.699 581.022 163.095 580.182 163.095C579.342 163.095 578.886 162.651 578.886 161.931V161.451H582.798V160.215C582.798 158.631 581.766 157.827 580.182 157.827C578.586 157.827 577.542 158.631 577.542 160.215V161.847C577.542 163.419 578.586 164.247 580.182 164.247C581.706 164.247 582.678 163.527 582.798 162.159H581.454ZM578.886 160.131C578.886 159.351 579.402 158.979 580.182 158.979C580.962 158.979 581.466 159.351 581.466 160.131V160.431H578.886V160.131ZM585.042 164.127H586.374V160.131C586.374 159.339 587.19 158.883 588.618 159.099V157.899C587.694 157.695 586.806 157.995 586.266 158.667L586.062 157.947H585.042V164.127Z" fill="#002B66"/>
<path d="M745.104 120.69V194.861C745.104 201.193 720.577 206.168 689.692 206.168C658.807 206.168 634.735 200.741 634.735 194.409V120.69" stroke="#002B66" stroke-width="2" stroke-miterlimit="10" stroke-linecap="round" stroke-linejoin="round"/>
<path d="M689.692 131.997C720.295 131.997 745.104 126.935 745.104 120.69C745.104 114.446 720.295 109.384 689.692 109.384C659.089 109.384 634.281 114.446 634.281 120.69C634.281 126.935 659.089 131.997 689.692 131.997Z" stroke="#002B66" stroke-width="2" stroke-miterlimit="10" stroke-linecap="round" stroke-linejoin="round"/>
<path d="M745.104 155.514C745.104 161.846 720.577 166.821 689.692 166.821C658.807 166.821 634.735 161.846 634.735 155.514" stroke="#002B66" stroke-width="2" stroke-miterlimit="10" stroke-linecap="round" stroke-linejoin="round"/>
<path d="M727.39 212.047C746.204 212.047 761.455 196.861 761.455 178.127C761.455 159.394 746.204 144.208 727.39 144.208C708.577 144.208 693.326 159.394 693.326 178.127C693.326 196.861 708.577 212.047 727.39 212.047Z" fill="white" stroke="#002B66" stroke-width="2" stroke-miterlimit="10" stroke-linecap="round" stroke-linejoin="round"/>
<path d="M711.039 177.223C715.554 177.223 719.215 173.578 719.215 169.082C719.215 164.586 715.554 160.942 711.039 160.942C706.524 160.942 702.864 164.586 702.864 169.082C702.864 173.578 706.524 177.223 711.039 177.223Z" fill="white" stroke="#002B66" stroke-width="2" stroke-miterlimit="10" stroke-linecap="round" stroke-linejoin="round"/>
<path d="M728.753 203.454C733.268 203.454 736.928 199.809 736.928 195.313C736.928 190.817 733.268 187.173 728.753 187.173C724.238 187.173 720.577 190.817 720.577 195.313C720.577 199.809 724.238 203.454 728.753 203.454Z" fill="white" stroke="#002B66" stroke-width="2" stroke-miterlimit="10" stroke-linecap="round" stroke-linejoin="round"/>
<path d="M745.104 184.007C749.619 184.007 753.279 180.362 753.279 175.866C753.279 171.37 749.619 167.726 745.104 167.726C740.588 167.726 736.928 171.37 736.928 175.866C736.928 180.362 740.588 184.007 745.104 184.007Z" fill="white" stroke="#002B66" stroke-width="2" stroke-miterlimit="10" stroke-linecap="round" stroke-linejoin="round"/>
<path d="M715.872 176.282L723.79 188.359" stroke="#002B66" stroke-width="2" stroke-miterlimit="10" stroke-linecap="round" stroke-linejoin="round"/>
<path d="M734.657 189.434L740.027 182.723" stroke="#002B66" stroke-width="2" stroke-miterlimit="10" stroke-linecap="round" stroke-linejoin="round"/>
<path d="M666.598 236.243C662.605 236.243 659.931 238.668 659.931 243.324V246.649C660.308 246.454 660.76 246.336 661.212 246.336C661.664 246.336 662.116 246.454 662.53 246.649V243.324C662.53 240.272 664.15 238.746 666.598 238.746C669.046 238.746 670.666 240.311 670.666 243.324V250.601H673.265V243.324C673.265 238.629 670.591 236.243 666.598 236.243Z" fill="black"/>
<path d="M674.659 243.637C674.659 239.373 677.672 236.282 681.929 236.282C686.185 236.282 689.123 239.412 689.123 243.637V244.615H677.409C677.785 247.119 679.593 248.488 681.929 248.488C683.662 248.488 684.905 247.941 685.696 246.689H688.558C687.504 249.31 685.055 250.953 681.929 250.953C677.672 250.992 674.659 247.862 674.659 243.637ZM686.411 242.189C685.884 239.959 684.114 238.747 681.929 238.747C679.706 238.747 678.011 239.998 677.484 242.189H686.411Z" fill="black"/>
<path d="M690.517 243.637C690.517 239.373 693.53 236.282 697.787 236.282C702.043 236.282 705.057 239.412 705.057 243.637C705.057 247.901 702.043 250.992 697.787 250.992C693.53 250.992 690.517 247.862 690.517 243.637ZM702.42 243.637C702.42 240.82 700.574 238.747 697.787 238.747C694.999 238.747 693.154 240.781 693.154 243.637C693.154 246.493 694.999 248.527 697.787 248.527C700.574 248.527 702.42 246.454 702.42 243.637Z" fill="black"/>
<path d="M719.86 253.418H720.162C721.819 253.418 722.459 252.635 722.459 250.679V236.712H725.058V250.484C725.058 253.926 723.74 255.726 720.425 255.726H719.898V253.418H719.86Z" fill="black"/>
<path d="M718.579 251.97H715.98V248.645H709.389C708.07 248.645 706.94 247.98 706.413 246.884C705.923 245.867 706.074 244.693 706.752 243.676L712.703 235.695C713.57 234.521 714.963 234.012 716.319 234.482C717.675 234.951 718.542 236.203 718.542 237.69V246.258H720.5V248.645H718.542V251.97H718.579ZM708.937 245.202C708.861 245.319 708.824 245.437 708.824 245.593C708.824 245.984 709.125 246.258 709.464 246.258H715.943V237.612C715.943 237.181 715.641 236.986 715.491 236.947C715.453 236.947 715.34 236.908 715.265 236.908C715.114 236.908 714.926 236.947 714.737 237.181L708.937 245.202Z" fill="black"/>
<path d="M723.778 231C722.572 231 721.555 232.017 721.555 233.308C721.555 234.56 722.535 235.617 723.778 235.617C724.983 235.617 726 234.599 726 233.308C726 232.017 724.983 231 723.778 231Z" fill="#018BFF"/>
<path d="M661.136 247.197C660.647 247.197 660.157 247.354 659.818 247.667L657.369 245.945C657.407 245.75 657.445 245.554 657.445 245.319C657.445 244.067 656.465 243.011 655.222 243.011C654.017 243.011 653 244.028 653 245.319C653 246.571 653.979 247.628 655.222 247.628C655.712 247.628 656.202 247.471 656.541 247.158L658.989 248.88C658.951 249.075 658.914 249.271 658.914 249.506C658.914 249.74 658.951 249.936 658.989 250.131L656.541 251.853C656.164 251.579 655.712 251.383 655.222 251.383C653.979 251.383 653 252.44 653 253.692C653 254.944 653.979 256 655.222 256C656.428 256 657.445 254.983 657.445 253.692C657.445 253.457 657.407 253.261 657.369 253.066L659.78 251.344C660.157 251.618 660.609 251.814 661.099 251.814C662.304 251.814 663.321 250.797 663.321 249.506C663.359 248.254 662.342 247.197 661.136 247.197Z" fill="#018BFF"/>
<defs>
<clipPath id="clip0">
<rect width="37" height="39" fill="white" transform="translate(412 103)"/>
</clipPath>
</defs>
</svg>
